<?xml version="1.0" encoding="UTF-8" standalone="no"?>
<!-- Created with Inkscape (http://www.inkscape.org/) -->

<svg
   width="210mm"
   height="297mm"
   viewBox="0 0 210 297"
   version="1.1"
   id="svg1"
   xml:space="preserve"
   inkscape:version="1.3.2 (091e20e, 2023-11-25, custom)"
   sodipodi:docname="Outline1.svg"
   xmlns:inkscape="http://www.inkscape.org/namespaces/inkscape"
   xmlns:sodipodi="http://sodipodi.sourceforge.net/DTD/sodipodi-0.dtd"
   xmlns="http://www.w3.org/2000/svg"
   xmlns:svg="http://www.w3.org/2000/svg"><sodipodi:namedview
     id="namedview1"
     pagecolor="#ffffff"
     bordercolor="#000000"
     borderopacity="0.25"
     inkscape:showpageshadow="2"
     inkscape:pageopacity="0.0"
     inkscape:pagecheckerboard="0"
     inkscape:deskcolor="#d1d1d1"
     inkscape:document-units="mm"
     inkscape:zoom="1.3843855"
     inkscape:cx="437.73934"
     inkscape:cy="669.24999"
     inkscape:window-width="1920"
     inkscape:window-height="991"
     inkscape:window-x="2391"
     inkscape:window-y="542"
     inkscape:window-maximized="1"
     inkscape:current-layer="layer1" /><defs
     id="defs1" /><g
     inkscape:label="Layer 1"
     inkscape:groupmode="layer"
     id="layer1"
     style="fill:none;stroke:#000000"><path
       style="fill:none;stroke-width:0.264583;stroke:#000000"
       d="m 147.86692,121.99409 -2.43678,-0.10751 -4.04935,-0.2389 -2.6279,-0.16723 -3.906,-0.2389 -7.44173,-0.43002 -8.45704,-0.56141 -6.33084,-0.37029 -10.58326,-0.62114 -15.803207,-0.77643 -8.230089,-0.33446 -1.385618,-0.0836 -0.167229,0.37029 0.346403,0.31057 0.119451,0.2389 c 0,0 0.155284,0.29863 0.179173,0.3464 0.02389,0.0478 0.143341,0.38225 0.143341,0.38225 0,0 0.09556,0.43001 0.107505,0.48974 0.01193,0.0597 0.03583,0.31057 0.03583,0.31057 l -0.03583,0.38224 -0.08362,0.33446 -0.155284,0.27473 -0.179176,0.2389 -0.179173,0.19112 -0.286681,0.32252 -0.250844,0.13139 -0.609195,0.17917 -0.501687,0.0597 -0.465854,-0.0836 -0.477801,-0.15529 -0.394184,-0.27473 -0.382238,-0.3703 -0.286682,-0.54947 -0.179173,-0.87198 0.119449,-0.99144 0.346406,-0.56141 0.346403,-0.50169 0.2389,-0.28668 -0.40613,-0.31057 -1.254223,0.0836 -1.970921,-0.0597 -1.039214,0.0358 -0.250844,0.15528 -0.05972,2.03065 -0.155287,2.04259 m 0.02389,-0.0836 -0.02389,1.08699 -0.03583,0.77643 -0.04778,0.81225 -0.09556,1.64841 -0.107505,1.88731 -0.02389,0.93171 v 1.43339 l 0.346405,0.0717 h 0.453909 0.370295 l 0.119449,-0.27473 0.02389,-0.4778 0.02389,-0.57336 0.14334,-0.0478 0.621139,0.0358 1.827582,0.0956 v 0.40613 l -0.203065,5.43496 -0.01195,0.19112 -0.286679,-0.0239 -2.281491,-0.1075 -0.03584,-0.35835 0.02389,-0.91977 -0.322515,-0.17917 -0.800314,-0.0239 -0.203064,0.0239 -0.02389,0.65697 -0.11945,2.17399 -0.14334,2.95041 -0.04778,1.29006 0.11945,0.15528 0.298625,-0.15528 0.501689,-0.22696 0.107505,-0.52558 0.597249,0.012 -0.09556,1.99481 -1.588683,1.26617 -0.01194,0.59725 0.179175,0.0358 0.298625,0.0239 0.406129,0.0597 0.358349,0.0239 0.203065,0.0119 0.406129,0.27474 0.489745,0.28668 0.597249,0.40613 0.800313,0.64502 0.740589,0.59725 0.633084,0.63309 0.549469,0.53752 0.561414,0.6092 0.45391,0.5853 c 0,0 0.08959,0.31654 0.07167,0.48377 -0.01792,0.16723 -0.483772,0.40613 -0.483772,0.40613 0,0 -0.220982,0.11348 -0.370295,0.0537 -0.149312,-0.0597 -5.464828,-0.22695 -5.464828,-0.22695 l -0.370295,0.0239 -0.191119,0.1075 -0.08362,0.15529 -0.02389,0.19112 v 0.28668 l 0.08361,0.25084 0.215009,0.15529 0.31057,0.0597 0.621139,0.0597 0.728644,0.0836 6.653354,0.62114 0.394184,0.21501 0.26279,0.40613 0.537524,1.03921 0.489744,1.00338 0.453909,1.05116 0.322515,0.97949 v 0.35835 l -0.155285,0.27473 -0.226954,0.19112 -0.07167,-0.0597 -10.177124,0.0478 -0.394184,0.0358 -0.250845,0.20307 -0.11945,0.28668 0.08361,0.41807 c 0,0 0.250845,0.17918 0.298625,0.19112 0.04778,0.0119 0.621139,0.0836 0.621139,0.0836 l 0.788368,0.10751 9.66349,0.75253 0.16723,0.14334 0.250844,0.0597 0.131395,0.29862 0.02389,0.99144 -0.107505,1.37367 -0.16723,1.23033 -0.191119,0.86004 -0.08362,0.1314 -0.19112,0.13139 -0.250844,-0.0119 -10.786318,0.19111 -0.21501,0.0956 -0.250844,0.16723 -0.131395,0.27474 0.107505,0.3464 c 0,0 0.179174,0.2389 0.262789,0.27474 0.08361,0.0358 0.33446,0.11945 0.40613,0.11945 0.07167,0 0.668919,0.0119 0.668919,0.0119 h 0.656973 l 8.559224,0.95034 0.219606,0.20272 0.06757,0.16893 v 0.32096 l -0.202714,0.62503 -0.337855,1.14871 -0.354747,1.21627 -0.337856,1.1656 -0.118249,0.16893 -0.37164,0.0845 -0.236499,0.0507 -8.328128,0.10136 -0.405426,0.0169 -0.228052,0.11825 -0.202713,0.22806 -0.05068,0.33785 0.177374,0.26184 c 0,0 0.211159,0.2196 0.244945,0.2365 0.03379,0.0169 0.422319,0.076 0.422319,0.076 l 1.266956,0.14359 6.562835,0.66727 0.219606,0.15203 0.143588,0.27873 -0.02534,0.2365 -0.08446,0.20271 -1.233171,4.0796 -0.109803,0.16048 -0.346301,0.10136 -0.236499,-0.008 -5.760429,-0.89531 -0.819298,-0.0169 -0.278731,0.0676 -0.168927,0.22805 -0.08446,0.2365 c 0,0 0.04223,0.2196 0.05913,0.28717 0.01689,0.0676 0.236498,0.2365 0.270284,0.2534 0.03378,0.0169 0.827745,0.27873 0.827745,0.27873 l 4.907345,1.46967 -0.253392,1.28384 -0.160481,0.0591 -0.287177,-0.0338 -2.297414,0.0845 -0.490708,0.0765 -0.35835,0.0896 -0.006,0.19112 c 0,0 0.07167,0.0597 0.113477,0.0657 0.04181,0.006 0.131395,0.11945 0.131395,0.11945 v 0.14931 l -0.116231,0.06 -0.312515,0.15203 -0.236499,0.21116 -0.118249,0.2365 -0.02534,0.27873 0.0084,0.3463 v 0.26184 l 0.0084,0.21116 0.168928,0.15203 0.27873,0.17738 0.312516,0.18582 0.456105,0.27028 0.380087,0.25339 0.354747,0.16893 0.270284,0.13514 0.185821,-0.0169 0.143588,-0.14359 0.152035,-0.16048 0.287177,-0.2365 c 0,0 0.135142,-0.0845 0.177374,-0.10136 0.04223,-0.0169 0.236498,-0.13514 0.320962,-0.16892 0.08446,-0.0338 0.18582,-0.0845 0.236498,-0.0929 0.05068,-0.008 0.185821,-0.0422 0.261838,-0.0507 0.07602,-0.008 0.160481,-0.0169 0.261838,-0.008 0.101356,0.008 0.295623,0 0.37164,0.0253 0.07602,0.0253 0.287177,0.0507 0.380087,0.0845 0.09291,0.0338 0.261838,0.0929 0.329409,0.14359 0.06757,0.0507 0.202713,0.1267 0.261838,0.19427 0.05912,0.0676 0.135142,0.16048 0.194266,0.24494 0.05912,0.0845 0.177374,0.24495 0.219606,0.32097 0.04223,0.076 0.109803,0.2196 0.126696,0.29562 0.01689,0.076 0.118249,0.27873 0.126696,0.32096 0.0084,0.0422 0.02534,0.2365 0.03379,0.32096 0.0084,0.0845 0.03379,0.20272 0.02534,0.2534 -0.0084,0.0507 -0.02534,0.30407 -0.02534,0.30407 l -0.160481,0.30406 -0.168928,0.40543 c 0,0 -0.152034,0.21116 -0.177374,0.25339 -0.02534,0.0422 -0.27873,0.28718 -0.27873,0.28718 l -0.48989,0.27028 c 0,0 -0.346301,0.0845 -0.39698,0.10136 -0.05068,0.0169 -0.37164,0.0507 -0.37164,0.0507 l -0.439212,-0.008 -0.413872,-0.15203 -0.464551,-0.24495 -0.320962,-0.15203 -0.202713,-0.29563 -0.06757,-0.076 v -0.0929 l -0.143589,-0.0253 -0.194266,0.0253 -0.109803,0.0845 -0.295623,0.15203 -1.334528,0.64193 -0.228052,0.1098 -0.202713,0.21116 -0.02534,0.40543 -0.168928,3.94446 0.04223,0.29562 0.109803,0.18582 0.168927,0.0845 0.88687,0.0422 3.48899,0.17324 5.134892,0.14644 5.726643,0.2365 5.084719,0.28717 1.300742,0.0676 h 0.456105 l 0.168927,-0.0507 0.168928,-0.18583 -0.03379,-0.33785 0.01689,-0.30407 -0.118249,-0.0676 h -0.641925 l -0.523675,-0.0507 -0.06757,-0.0676 -0.03379,-0.32096 v -0.33786 l 0.03379,-0.27028 0.253391,-0.0169 0.472997,0.0169 0.523675,-0.0338 0.101357,-0.0676 0.08446,-0.2196 -0.01689,-0.48989 -0.168928,-0.21961 -0.574353,-0.0338 -2.753519,-0.0845 -3.919119,-0.18582 -3.175838,-0.15203 -0.320813,0.006 -0.388212,-0.0657 -0.441964,-0.10153 -0.489744,-0.22099 -0.280707,-0.18514 -0.394185,-0.32849 -0.226954,-0.29863 -0.292652,-0.44196 -0.179175,-0.46585 -0.113477,-0.46586 -0.01792,-0.48974 0.01194,-0.34043 0.02986,-0.7167 0.113477,-2.26955 0.05375,-1.51701 -0.01194,-0.35835 c 0,0 0.07167,-0.2389 0.09556,-0.28668 0.02389,-0.0478 0.19112,-0.50169 0.226955,-0.54947 0.03584,-0.0478 0.226955,-0.68086 0.226955,-0.68086 l 0.262789,-0.48975 0.370294,-0.15528 11.455237,-0.0358 0.585304,-0.0717 0.477799,-0.0239 0.16723,-0.1075 0.226955,-0.10751 c 0,0 0.01194,-0.32251 0.01194,-0.37029 0,-0.0478 0.02389,-0.31057 0.02389,-0.31057 0,0 -0.35835,-0.16723 -0.418075,-0.19112 -0.05973,-0.0239 -0.525579,-0.10751 -0.585304,-0.10751 -0.05973,0 -0.418074,0.012 -0.418074,0.012 l -10.021839,-1.09894 -0.406129,-0.0239 -0.21501,-0.27473 0.01195,-0.43002 0.226955,-0.45391 1.469232,-3.72684 0.35835,-0.0956 9.23347,-0.17917 0.633084,-0.012 0.155285,-0.0478 0.167229,-0.13139 0.19112,-0.26279 -0.03584,-0.25084 -0.16723,-0.33446 -0.310569,-0.14334 -0.716699,-0.0956 -7.907577,-0.86004 -0.250845,-0.0836 -0.155285,-0.17917 -0.07167,-0.32252 1.743968,-4.71826 0.238899,-0.15529 0.465855,-0.17917 6.904198,0.20306 0.2389,-0.0717 0.16723,-0.16723 0.107505,-0.19112 0.01194,-0.27473 -0.131395,-0.28668 -0.31057,-0.1314 -0.585304,-0.0717 -5.614141,-0.39418 -0.334459,-0.21501 -0.26279,-0.31057 0.131395,-0.77642 0.31057,-1.51702 0.155284,-1.13477 0.09556,-0.88393 0.04778,-0.77642 0.11945,-0.1314 0.334459,-0.0239 5.781371,-0.13139 0.26279,-0.0956 0.143339,-0.14334 0.131395,-0.31057 -0.131395,-0.28668 -0.203064,-0.22695 -0.370295,-0.0956 -0.621139,-0.0597 -5.064672,-0.25084 -0.358349,-0.2389 -0.298625,-1.31395 -0.238899,-1.14672 -0.35835,-1.51701 -0.346404,-1.03922 0.01194,-0.43001 0.28668,-0.20307 0.191119,-0.0836 6.832529,0.0119 0.322515,-0.0239 0.298624,-0.0478 0.2389,-0.16723 0.14334,-0.38224 -0.14334,-0.28668 -0.250845,-0.21501 -0.489744,-0.0717 -0.585304,-0.0478 -7.286438,-0.60919 -0.812259,-0.32252 -0.537524,-0.80031 -0.883929,-1.24228 -0.585304,-0.80031 -0.525579,-0.53753 -0.418074,-0.38223 -0.513634,-0.70476 -0.11945,-0.2389 0.04778,-0.22695 0.215009,-0.22696 H 80.4375 l 11.299952,-0.0956 0.597249,-0.0478 0.274735,-0.0956 0.250844,-0.26279 0.01194,-0.27473 -0.08361,-0.28668 -0.310569,-0.19112 -0.609194,-0.11945 -13.461994,-1.302 -0.274734,-0.0836 -0.274735,-0.14334 -0.334459,-0.28668 -0.11945,-0.29862 -0.01194,-0.57336 0.26279,-3.29682 0.09556,-0.0717 14.465371,-0.14334 0.35835,-0.0239 0.346404,-0.0956 0.274735,-0.33445 0.04778,-0.2389 c 0,0 -0.131395,-0.22696 -0.155285,-0.27474 -0.02389,-0.0478 -0.2389,-0.19112 -0.2389,-0.19112 l -0.585304,-0.0717 -0.573359,-0.0119 -12.852799,-1.1945 -0.21501,-0.15529 -0.406129,-0.21501 -0.274735,-0.1075 -0.14334,-0.20307 -0.02389,-0.57335 0.03583,-1.97093 0.01195,-0.59725 0.11945,-0.26278 0.477799,-0.3703 1.445343,-0.43002 8.612331,-2.46066 4.885497,-1.4334 0.298625,-0.0956 4.562983,0.19112 5.076618,0.27473 6.02027,0.35835 10.41603,0.62114 5.25579,0.39418 1.81564,0.10751 4.1449,1.26617 4.35991,1.31395 3.77462,1.14671 4.63465,1.44535 4.09713,1.27811 0.39419,0.2389 c 0,0 0.28667,0.31057 0.28667,0.35835 0,0.0478 0.0239,0.7167 0.0239,0.7167 l -0.17916,2.03064 -0.20307,0.32252 -0.34641,0.22695 -0.4778,0.0478 -20.2109,-0.26279 -0.39419,-0.0119 -0.33445,0.16723 -0.20307,0.29862 0.0836,0.41808 0.31057,0.22695 0.66891,0.1314 0.7167,0.0717 18.90891,2.43677 0.63308,0.15529 0.37029,0.29862 0.21501,0.70476 v 0.41807 l -0.17918,1.74397 -0.3225,0.44196 -0.41808,0.15529 -0.32251,0.0478 -20.1034,-0.19112 -0.48975,0.0358 -0.38224,0.15529 -0.16723,0.31057 0.0239,0.35834 0.32252,0.25085 0.57336,0.1075 0.96754,0.17918 18.93279,2.389 0.59725,0.19111 0.41808,0.43002 0.11945,0.6092 v 0.78837 l -0.0478,0.54947 -0.0597,0.59725 -0.26279,0.44196 -0.37029,0.29862 -0.68087,0.0358 -20.3423,-0.14334 -0.33446,0.0836 -0.22695,0.34641 0.0597,0.43002 0.33446,0.20306 0.89588,0.16723 1.14671,0.19112 18.22804,2.24566 0.44197,0.0836 0.43002,0.29863 0.28668,0.43002 0.0358,0.64503 -0.13139,1.74396 -0.22696,0.45391 -0.50169,0.25085 -0.51363,0.0717 -20.22285,-0.19112 -0.51364,0.1075 -0.21501,0.27474 0.0597,0.38224 0.32251,0.37029 0.64503,0.0717 1.18255,0.14334 18.81335,2.42483 0.54947,0.31057 0.32251,0.59725 -0.0239,0.94365 -0.13139,1.23034 -0.16723,0.43002 -0.48975,0.29862 -0.64502,0.0239 -20.09146,-0.0478 -0.45391,0.0478 -0.28668,0.25084 0.0119,0.41808 0.32252,0.39418 0.8242,0.14334 19.44643,2.42483 0.56142,0.11945 0.51363,0.43002 0.14334,0.93171 0.0358,0.80032 -0.0717,0.95559 -0.43002,0.43002 -0.40612,0.20307 -20.65288,0.0119 -0.4778,0.0358 -0.28668,0.29862 0.0239,0.57336 0.38224,0.20307 1.087,0.20306 19.31503,2.40094 0.53753,0.14334 0.39418,0.41808 0.14334,0.75253 -0.0239,0.87198 -0.10751,0.78837 -0.19111,0.51364 -0.50169,0.33446 -0.6092,0.0956 -19.98395,-0.0717 -0.46586,0.0597 -0.33445,0.22695 v 0.40613 l 0.22695,0.31057 0.54947,0.16723 0.70475,0.0717 17.48745,1.97093 0.28668,0.33445 0.0119,0.41808 0.0119,1.56479 -0.0597,0.62114 -0.20307,0.11945 -4.10907,-0.17917 -0.27473,0.0836 -0.21501,0.22696 0.0239,0.51363 -0.22696,3.26098 -0.0836,0.37029 -0.0836,0.2389 -0.13139,0.32252 -0.15529,0.28668 -0.20306,0.31057 -0.29863,0.31057 -0.25084,0.2389 -0.60919,0.29862 -0.45391,0.13139 -0.68087,0.0836 -0.69281,-0.0239 -10.7025,-0.70453 -0.39418,0.0119 -0.16723,0.25085 v 0.50168 l 0.16723,0.21501 1.25422,0.11945 0.0239,0.63309 -0.0358,0.29862 h -1.32589 l -0.14334,0.0717 -0.0478,0.32252 v 0.43002 l 0.25085,0.11945 2.8429,0.20306 7.65673,0.4778 6.85642,0.40613 0.25085,-0.19112 0.29862,-0.35835 0.0358,-0.15528 -0.27474,-0.1314 -0.26279,-0.20306 c 0,0 -0.13139,-0.10751 -0.17917,-0.20307 -0.0478,-0.0956 -0.15529,-0.27473 -0.19112,-0.32251 -0.0358,-0.0478 -0.19112,-0.2389 -0.20307,-0.3703 -0.0119,-0.13139 -0.0239,-0.3464 -0.0597,-0.44196 -0.0358,-0.0956 -0.0597,-0.17918 -0.0597,-0.26279 0,-0.0836 0,-0.38224 0,-0.46586 0,-0.0836 0.0717,-0.38223 0.10751,-0.43001 0.0358,-0.0478 0.16723,-0.20307 0.22695,-0.33446 0.0597,-0.1314 0.59725,-0.68087 0.59725,-0.68087 0,0 0.0956,-0.0358 0.19112,-0.1075 0.0956,-0.0717 0.29863,-0.19112 0.39419,-0.2389 0.0956,-0.0478 0.60919,-0.20307 0.60919,-0.20307 l 0.54947,-0.0597 c 0,0 0.51363,0.0717 0.57336,0.0956 0.0597,0.0239 0.53752,0.25084 0.53752,0.25084 0,0 0.38224,0.34641 0.41808,0.39419 0.0358,0.0478 0.28668,0.41807 0.31057,0.46585 0.0239,0.0478 0.26279,0.53752 0.29862,0.59725 0.0358,0.0597 0.15529,0.53752 0.15529,0.66892 0,0.13139 0.0717,0.43002 0.0597,0.50169 -0.0119,0.0717 -0.17917,0.59725 -0.17917,0.59725 0,0 -0.14334,0.28668 -0.17918,0.3464 -0.0358,0.0597 -0.22695,0.20307 -0.27473,0.26279 -0.0478,0.0597 -0.29863,0.31057 -0.34641,0.34641 -0.0478,0.0358 -0.27473,0.15528 -0.27473,0.15528 l -0.17918,0.0478 0.68087,0.75253 3.09375,0.0478 3.29681,0.16723 0.40613,-0.0717 0.33446,-0.16723 0.15529,-0.33446 0.26279,-4.20463 -0.25085,-0.32251 -1.302,-0.81226 -0.66892,-0.34641 -0.14334,0.0358 -0.21501,0.19112 -0.54947,0.38224 -0.51363,0.19112 -0.81226,-0.012 -0.63309,-0.20306 -0.51363,-0.34641 -0.35835,-0.50169 -0.22695,-0.64502 -0.10751,-0.46586 0.0717,-0.60919 0.17918,-0.45391 0.28667,-0.40613 0.63309,-0.38224 0.7167,-0.31057 0.54947,-0.0478 c 0,0 0.43002,0.0717 0.48974,0.1075 0.0597,0.0358 0.64503,0.44197 0.64503,0.44197 l 0.35835,0.33446 0.19112,0.27473 0.17917,-0.0119 0.48975,-0.2389 0.86004,-0.43002 0.83614,-0.45391 0.15529,-0.33446 0.0478,-1.05116 0.28668,-5.3394 0.35835,-6.02028 0.35835,-6.16361 0.40613,-6.92808 0.32251,-5.87693 0.32252,-6.82059 0.15528,-2.40094 -0.0478,-0.25084 -0.27473,-0.26279 -0.6092,-0.58531 -0.46585,-0.50169 -0.11945,-0.26279 0.15528,-1.82758 h 0.20307 l 0.45391,0.0836 -0.0358,0.3464 0.26279,0.33446 0.46586,0.29862 0.17917,-0.0358 0.28668,-5.26774 0.3464,-6.79669 0.51364,-9.38876 0.0836,-1.58868 -2.61595,-0.35835 -0.17917,0.0956 -0.21501,0.4778 0.21501,0.19112 0.33446,0.35835 0.27473,0.70475 0.0299,0.28071 0.0119,0.40016 c 0,0 -0.0478,0.32251 -0.0538,0.35238 -0.006,0.0299 -0.10751,0.32848 -0.10751,0.32848 l -0.14334,0.31654 -0.20306,0.32252 -0.43002,0.3046 -0.34641,0.22695 -0.39418,0.11945 -0.42405,0.0717 -0.4121,-0.0418 -0.44794,-0.17917 -0.41807,-0.24487 -0.40613,-0.34044 -0.35238,-0.60322 -0.1732,-0.69281 0.0478,-0.62114 0.18515,-0.56738 0.4778,-0.56739 0.32251,-0.17917 0.0956,-0.2389 -0.11945,-0.27474 -0.14931,-0.25681 -2.1919,-0.13737"
       id="path1"
       inkscape:label="path1" /></g></svg>
