999
"DXF R12 Output" (www.mydxf.blogspot.com)
 0 
SECTION
 2 
HEADER
 9 
$ACADVER
 1 
AC1009
 9 
$EXTMIN
 10 
 0 
 20 
 0 
 9 
$EXTMAX
 10 
 8.5 
 20 
 11 
 0 
ENDSEC
 0 
SECTION
 2 
ENTITIES
0
LINE
8
Layer 1
10
147.866920
20
175.005910
11
145.430140
21
175.113420
0
LINE
8
Layer 1
10
145.430140
20
175.113420
11
141.380790
21
175.352320
0
LINE
8
Layer 1
10
141.380790
20
175.352320
11
138.752890
21
175.519550
0
LINE
8
Layer 1
10
138.752890
20
175.519550
11
134.846890
21
175.758450
0
LINE
8
Layer 1
10
134.846890
20
175.758450
11
127.405160
21
176.188470
0
LINE
8
Layer 1
10
127.405160
20
176.188470
11
118.948120
21
176.749880
0
LINE
8
Layer 1
10
118.948120
20
176.749880
11
112.617280
21
177.120170
0
LINE
8
Layer 1
10
112.617280
20
177.120170
11
102.034020
21
177.741310
0
LINE
8
Layer 1
10
102.034020
20
177.741310
11
86.230813
21
178.517740
0
LINE
8
Layer 1
10
86.230813
20
178.517740
11
78.000724
21
178.852200
0
LINE
8
Layer 1
10
78.000724
20
178.852200
11
76.615106
21
178.935800
0
LINE
8
Layer 1
10
76.615106
20
178.935800
11
76.447877
21
178.565510
0
LINE
8
Layer 1
10
76.447877
20
178.565510
11
76.794280
21
178.254940
0
LINE
8
Layer 1
10
76.794280
20
178.254940
11
76.913731
21
178.016040
0
LINE
8
Layer 1
10
76.913731
20
178.016040
11
77.092904
21
177.669640
0
LINE
8
Layer 1
10
77.092904
20
177.669640
11
77.236245
21
177.287390
0
LINE
8
Layer 1
10
77.236245
20
177.287390
11
77.343750
21
176.797650
0
LINE
8
Layer 1
10
77.343750
20
176.797650
11
77.379580
21
176.487080
0
LINE
8
Layer 1
10
77.379580
20
176.487080
11
77.343750
21
176.104840
0
LINE
8
Layer 1
10
77.343750
20
176.104840
11
77.260130
21
175.770380
0
LINE
8
Layer 1
10
77.260130
20
175.770380
11
77.104846
21
175.495650
0
LINE
8
Layer 1
10
77.104846
20
175.495650
11
76.925670
21
175.256750
0
LINE
8
Layer 1
10
76.925670
20
175.256750
11
76.746497
21
175.065630
0
LINE
8
Layer 1
10
76.746497
20
175.065630
11
76.459816
21
174.743110
0
LINE
8
Layer 1
10
76.459816
20
174.743110
11
76.208972
21
174.611720
0
LINE
8
Layer 1
10
76.208972
20
174.611720
11
75.599777
21
174.432550
0
LINE
8
Layer 1
10
75.599777
20
174.432550
11
75.098090
21
174.372850
0
LINE
8
Layer 1
10
75.098090
20
174.372850
11
74.632236
21
174.456450
0
LINE
8
Layer 1
10
74.632236
20
174.456450
11
74.154435
21
174.611740
0
LINE
8
Layer 1
10
74.154435
20
174.611740
11
73.760251
21
174.886470
0
LINE
8
Layer 1
10
73.760251
20
174.886470
11
73.378013
21
175.256770
0
LINE
8
Layer 1
10
73.378013
20
175.256770
11
73.091331
21
175.806240
0
LINE
8
Layer 1
10
73.091331
20
175.806240
11
72.912158
21
176.678220
0
LINE
8
Layer 1
10
72.912158
20
176.678220
11
73.031607
21
177.669660
0
LINE
8
Layer 1
10
73.031607
20
177.669660
11
73.378013
21
178.231070
0
LINE
8
Layer 1
10
73.378013
20
178.231070
11
73.724416
21
178.732760
0
LINE
8
Layer 1
10
73.724416
20
178.732760
11
73.963316
21
179.019440
0
LINE
8
Layer 1
10
73.963316
20
179.019440
11
73.557186
21
179.330010
0
LINE
8
Layer 1
10
73.557186
20
179.330010
11
72.302963
21
179.246410
0
LINE
8
Layer 1
10
72.302963
20
179.246410
11
70.332042
21
179.306110
0
LINE
8
Layer 1
10
70.332042
20
179.306110
11
69.292828
21
179.270310
0
LINE
8
Layer 1
10
69.292828
20
179.270310
11
69.041984
21
179.115030
0
LINE
8
Layer 1
10
69.041984
20
179.115030
11
68.982264
21
177.084380
0
LINE
8
Layer 1
10
68.982264
20
177.084380
11
68.826977
21
175.041790
0
LINE
8
Layer 1
10
68.850867
20
175.125390
11
68.826977
21
174.038400
0
LINE
8
Layer 1
10
68.826977
20
174.038400
11
68.791147
21
173.261970
0
LINE
8
Layer 1
10
68.791147
20
173.261970
11
68.743367
21
172.449720
0
LINE
8
Layer 1
10
68.743367
20
172.449720
11
68.647807
21
170.801310
0
LINE
8
Layer 1
10
68.647807
20
170.801310
11
68.540302
21
168.914000
0
LINE
8
Layer 1
10
68.540302
20
168.914000
11
68.516412
21
167.982290
0
LINE
8
Layer 1
10
68.516412
20
167.982290
11
68.516412
21
166.548900
0
LINE
8
Layer 1
10
68.516412
20
166.548900
11
68.862817
21
166.477200
0
LINE
8
Layer 1
10
68.862817
20
166.477200
11
69.316726
21
166.477200
0
LINE
8
Layer 1
10
69.316726
20
166.477200
11
69.687021
21
166.477200
0
LINE
8
Layer 1
10
69.687021
20
166.477200
11
69.806470
21
166.751930
0
LINE
8
Layer 1
10
69.806470
20
166.751930
11
69.830360
21
167.229730
0
LINE
8
Layer 1
10
69.830360
20
167.229730
11
69.854250
21
167.803090
0
LINE
8
Layer 1
10
69.854250
20
167.803090
11
69.997590
21
167.850890
0
LINE
8
Layer 1
10
69.997590
20
167.850890
11
70.618729
21
167.815090
0
LINE
8
Layer 1
10
70.618729
20
167.815090
11
72.446311
21
167.719490
0
LINE
8
Layer 1
10
72.446311
20
167.719490
11
72.446311
21
167.313360
0
LINE
8
Layer 1
10
72.446311
20
167.313360
11
72.243246
21
161.878400
0
LINE
8
Layer 1
10
72.243246
20
161.878400
11
72.231296
21
161.687280
0
LINE
8
Layer 1
10
72.231296
20
161.687280
11
71.944617
21
161.711180
0
LINE
8
Layer 1
10
71.944617
20
161.711180
11
69.663126
21
161.818680
0
LINE
8
Layer 1
10
69.663126
20
161.818680
11
69.627286
21
162.177030
0
LINE
8
Layer 1
10
69.627286
20
162.177030
11
69.651176
21
163.096800
0
LINE
8
Layer 1
10
69.651176
20
163.096800
11
69.328661
21
163.275970
0
LINE
8
Layer 1
10
69.328661
20
163.275970
11
68.528347
21
163.299870
0
LINE
8
Layer 1
10
68.528347
20
163.299870
11
68.325283
21
163.275970
0
LINE
8
Layer 1
10
68.325283
20
163.275970
11
68.301393
21
162.619000
0
LINE
8
Layer 1
10
68.301393
20
162.619000
11
68.181943
21
160.445010
0
LINE
8
Layer 1
10
68.181943
20
160.445010
11
68.038603
21
157.494600
0
LINE
8
Layer 1
10
68.038603
20
157.494600
11
67.990823
21
156.204540
0
LINE
8
Layer 1
10
67.990823
20
156.204540
11
68.110273
21
156.049260
0
LINE
8
Layer 1
10
68.110273
20
156.049260
11
68.408898
21
156.204540
0
LINE
8
Layer 1
10
68.408898
20
156.204540
11
68.910587
21
156.431500
0
LINE
8
Layer 1
10
68.910587
20
156.431500
11
69.018092
21
156.957080
0
LINE
8
Layer 1
10
69.018092
20
156.957080
11
69.615341
21
156.945080
0
LINE
8
Layer 1
10
69.615341
20
156.945080
11
69.519781
21
154.950270
0
LINE
8
Layer 1
10
69.519781
20
154.950270
11
67.931098
21
153.684100
0
LINE
8
Layer 1
10
67.931098
20
153.684100
11
67.919158
21
153.086850
0
LINE
8
Layer 1
10
67.919158
20
153.086850
11
68.098333
21
153.051050
0
LINE
8
Layer 1
10
68.098333
20
153.051050
11
68.396958
21
153.027150
0
LINE
8
Layer 1
10
68.396958
20
153.027150
11
68.803087
21
152.967450
0
LINE
8
Layer 1
10
68.803087
20
152.967450
11
69.161436
21
152.943550
0
LINE
8
Layer 1
10
69.161436
20
152.943550
11
69.364501
21
152.931650
0
LINE
8
Layer 1
10
69.364501
20
152.931650
11
69.770630
21
152.656910
0
LINE
8
Layer 1
10
69.770630
20
152.656910
11
70.260375
21
152.370230
0
LINE
8
Layer 1
10
70.260375
20
152.370230
11
70.857624
21
151.964100
0
LINE
8
Layer 1
10
70.857624
20
151.964100
11
71.657937
21
151.319080
0
LINE
8
Layer 1
10
71.657937
20
151.319080
11
72.398526
21
150.721830
0
LINE
8
Layer 1
10
72.398526
20
150.721830
11
73.031610
21
150.088740
0
LINE
8
Layer 1
10
73.031610
20
150.088740
11
73.581079
21
149.551220
0
LINE
8
Layer 1
10
73.581079
20
149.551220
11
74.142493
21
148.942020
0
LINE
8
Layer 1
10
74.142493
20
148.942020
11
74.596403
21
148.356720
0
LINE
8
Layer 1
10
74.596403
20
148.356720
11
74.668073
21
147.872950
0
LINE
8
Layer 1
10
74.668073
20
147.872950
11
74.419467
21
147.607174
0
LINE
8
Layer 1
10
74.419467
20
147.607174
11
74.184301
21
147.466820
0
LINE
8
Layer 1
10
74.184301
20
147.466820
11
73.814006
21
147.413120
0
LINE
8
Layer 1
10
73.814006
20
147.413120
11
68.349178
21
147.640070
0
LINE
8
Layer 1
10
68.349178
20
147.640070
11
67.978883
21
147.616170
0
LINE
8
Layer 1
10
67.978883
20
147.616170
11
67.787764
21
147.508670
0
LINE
8
Layer 1
10
67.787764
20
147.508670
11
67.704144
21
147.353380
0
LINE
8
Layer 1
10
67.704144
20
147.353380
11
67.680254
21
147.162260
0
LINE
8
Layer 1
10
67.680254
20
147.162260
11
67.680254
21
146.875580
0
LINE
8
Layer 1
10
67.680254
20
146.875580
11
67.763864
21
146.624740
0
LINE
8
Layer 1
10
67.763864
20
146.624740
11
67.978873
21
146.469450
0
LINE
8
Layer 1
10
67.978873
20
146.469450
11
68.289443
21
146.409750
0
LINE
8
Layer 1
10
68.289443
20
146.409750
11
68.910582
21
146.350050
0
LINE
8
Layer 1
10
68.910582
20
146.350050
11
69.639226
21
146.266450
0
LINE
8
Layer 1
10
69.639226
20
146.266450
11
76.292580
21
145.645310
0
LINE
8
Layer 1
10
76.292580
20
145.645310
11
76.686764
21
145.430300
0
LINE
8
Layer 1
10
76.686764
20
145.430300
11
76.949554
21
145.024170
0
LINE
8
Layer 1
10
76.949554
20
145.024170
11
77.487078
21
143.984960
0
LINE
8
Layer 1
10
77.487078
20
143.984960
11
77.976822
21
142.981580
0
LINE
8
Layer 1
10
77.976822
20
142.981580
11
78.430731
21
141.930420
0
LINE
8
Layer 1
10
78.430731
20
141.930420
11
78.753246
21
140.950930
0
LINE
8
Layer 1
10
78.753246
20
140.950930
11
78.753246
21
140.592580
0
LINE
8
Layer 1
10
78.753246
20
140.592580
11
78.597961
21
140.317850
0
LINE
8
Layer 1
10
78.597961
20
140.317850
11
78.371007
21
140.126730
0
LINE
8
Layer 1
10
78.371007
20
140.126730
11
78.299337
21
140.186430
0
LINE
8
Layer 1
10
78.299337
20
140.186430
11
68.122213
21
140.138630
0
LINE
8
Layer 1
10
68.122213
20
140.138630
11
67.728029
21
140.102830
0
LINE
8
Layer 1
10
67.728029
20
140.102830
11
67.477184
21
139.899760
0
LINE
8
Layer 1
10
67.477184
20
139.899760
11
67.357734
21
139.613080
0
LINE
8
Layer 1
10
67.357734
20
139.613080
11
67.441344
21
139.195010
0
LINE
8
Layer 1
10
67.441344
20
139.195010
11
67.739969
21
139.003890
0
LINE
8
Layer 1
10
67.739969
20
139.003890
11
68.361108
21
138.920290
0
LINE
8
Layer 1
10
68.361108
20
138.920290
11
69.149476
21
138.812780
0
LINE
8
Layer 1
10
69.149476
20
138.812780
11
78.812966
21
138.060250
0
LINE
8
Layer 1
10
78.812966
20
138.060250
11
78.980196
21
137.916910
0
LINE
8
Layer 1
10
78.980196
20
137.916910
11
79.231040
21
137.857210
0
LINE
8
Layer 1
10
79.231040
20
137.857210
11
79.362435
21
137.558590
0
LINE
8
Layer 1
10
79.362435
20
137.558590
11
79.386325
21
136.567150
0
LINE
8
Layer 1
10
79.386325
20
136.567150
11
79.278820
21
135.193480
0
LINE
8
Layer 1
10
79.278820
20
135.193480
11
79.111590
21
133.963150
0
LINE
8
Layer 1
10
79.111590
20
133.963150
11
78.920471
21
133.103110
0
LINE
8
Layer 1
10
78.920471
20
133.103110
11
78.836851
21
132.971710
0
LINE
8
Layer 1
10
78.836851
20
132.971710
11
78.645731
21
132.840320
0
LINE
8
Layer 1
10
78.645731
20
132.840320
11
78.394887
21
132.852220
0
LINE
8
Layer 1
10
78.394887
20
132.852220
11
67.608569
21
132.661110
0
LINE
8
Layer 1
10
67.608569
20
132.661110
11
67.393559
21
132.565510
0
LINE
8
Layer 1
10
67.393559
20
132.565510
11
67.142715
21
132.398280
0
LINE
8
Layer 1
10
67.142715
20
132.398280
11
67.011320
21
132.123540
0
LINE
8
Layer 1
10
67.011320
20
132.123540
11
67.118825
21
131.777140
0
LINE
8
Layer 1
10
67.118825
20
131.777140
11
67.381614
21
131.502400
0
LINE
8
Layer 1
10
67.381614
20
131.502400
11
67.787744
21
131.382950
0
LINE
8
Layer 1
10
67.787744
20
131.382950
11
68.456663
21
131.371050
0
LINE
8
Layer 1
10
68.456663
20
131.371050
11
69.113636
21
131.371050
0
LINE
8
Layer 1
10
69.113636
20
131.371050
11
77.672860
21
130.420710
0
LINE
8
Layer 1
10
77.672860
20
130.420710
11
77.892466
21
130.217990
0
LINE
8
Layer 1
10
77.892466
20
130.217990
11
77.960036
21
130.049060
0
LINE
8
Layer 1
10
77.960036
20
130.049060
11
77.960036
21
129.728100
0
LINE
8
Layer 1
10
77.960036
20
129.728100
11
77.757322
21
129.103070
0
LINE
8
Layer 1
10
77.757322
20
129.103070
11
77.419467
21
127.954360
0
LINE
8
Layer 1
10
77.419467
20
127.954360
11
77.064720
21
126.738090
0
LINE
8
Layer 1
10
77.064720
20
126.738090
11
76.726864
21
125.572490
0
LINE
8
Layer 1
10
76.726864
20
125.572490
11
76.608615
21
125.403560
0
LINE
8
Layer 1
10
76.608615
20
125.403560
11
76.236975
21
125.319060
0
LINE
8
Layer 1
10
76.236975
20
125.319060
11
76.000476
21
125.268360
0
LINE
8
Layer 1
10
76.000476
20
125.268360
11
67.672348
21
125.167000
0
LINE
8
Layer 1
10
67.672348
20
125.167000
11
67.266922
21
125.150100
0
LINE
8
Layer 1
10
67.266922
20
125.150100
11
67.038870
21
125.031850
0
LINE
8
Layer 1
10
67.038870
20
125.031850
11
66.836157
21
124.803790
0
LINE
8
Layer 1
10
66.836157
20
124.803790
11
66.785477
21
124.465940
0
LINE
8
Layer 1
10
66.785477
20
124.465940
11
66.962851
21
124.204100
0
LINE
8
Layer 1
10
66.962851
20
124.204100
11
67.207796
21
123.967600
0
LINE
8
Layer 1
10
67.207796
20
123.967600
11
67.630115
21
123.891600
0
LINE
8
Layer 1
10
67.630115
20
123.891600
11
68.897071
21
123.748010
0
LINE
8
Layer 1
10
68.897071
20
123.748010
11
75.459906
21
123.080740
0
LINE
8
Layer 1
10
75.459906
20
123.080740
11
75.679512
21
122.928710
0
LINE
8
Layer 1
10
75.679512
20
122.928710
11
75.823100
21
122.649980
0
LINE
8
Layer 1
10
75.823100
20
122.649980
11
75.797760
21
122.413480
0
LINE
8
Layer 1
10
75.797760
20
122.413480
11
75.713300
21
122.210770
0
LINE
8
Layer 1
10
75.713300
20
122.210770
11
74.480129
21
118.131170
0
LINE
8
Layer 1
10
74.480129
20
118.131170
11
74.370326
21
117.970690
0
LINE
8
Layer 1
10
74.370326
20
117.970690
11
74.024025
21
117.869330
0
LINE
8
Layer 1
10
74.024025
20
117.869330
11
73.787526
21
117.877330
0
LINE
8
Layer 1
10
73.787526
20
117.877330
11
68.027097
21
118.772640
0
LINE
8
Layer 1
10
68.027097
20
118.772640
11
67.207799
21
118.789540
0
LINE
8
Layer 1
10
67.207799
20
118.789540
11
66.929068
21
118.721940
0
LINE
8
Layer 1
10
66.929068
20
118.721940
11
66.760141
21
118.493890
0
LINE
8
Layer 1
10
66.760141
20
118.493890
11
66.675681
21
118.257390
0
LINE
8
Layer 1
10
66.675681
20
118.257390
11
66.734811
21
117.970220
0
LINE
8
Layer 1
10
66.734811
20
117.970220
11
67.005095
21
117.716820
0
LINE
8
Layer 1
10
67.005095
20
117.716820
11
67.832840
21
117.438090
0
LINE
8
Layer 1
10
67.832840
20
117.438090
11
72.740185
21
115.968420
0
LINE
8
Layer 1
10
72.740185
20
115.968420
11
72.486793
21
114.684580
0
LINE
8
Layer 1
10
72.486793
20
114.684580
11
72.326312
21
114.625480
0
LINE
8
Layer 1
10
72.326312
20
114.625480
11
72.039135
21
114.659280
0
LINE
8
Layer 1
10
72.039135
20
114.659280
11
69.741721
21
114.574780
0
LINE
8
Layer 1
10
69.741721
20
114.574780
11
69.251013
21
114.498280
0
LINE
8
Layer 1
10
69.251013
20
114.498280
11
68.892663
21
114.408680
0
LINE
8
Layer 1
10
68.892663
20
114.408680
11
68.886663
21
114.217560
0
LINE
8
Layer 1
10
68.886663
20
114.217560
11
69.000140
21
114.151860
0
LINE
8
Layer 1
10
69.000140
20
114.151860
11
69.131535
21
114.032410
0
LINE
8
Layer 1
10
69.131535
20
114.032410
11
69.131535
21
113.883100
0
LINE
8
Layer 1
10
69.131535
20
113.883100
11
69.015304
21
113.823100
0
LINE
8
Layer 1
10
69.015304
20
113.823100
11
68.702789
21
113.671070
0
LINE
8
Layer 1
10
68.702789
20
113.671070
11
68.466290
21
113.459910
0
LINE
8
Layer 1
10
68.466290
20
113.459910
11
68.348041
21
113.223410
0
LINE
8
Layer 1
10
68.348041
20
113.223410
11
68.322701
21
112.944680
0
LINE
8
Layer 1
10
68.322701
20
112.944680
11
68.331101
21
112.598380
0
LINE
8
Layer 1
10
68.331101
20
112.598380
11
68.331101
21
112.336540
0
LINE
8
Layer 1
10
68.331101
20
112.336540
11
68.339501
21
112.125380
0
LINE
8
Layer 1
10
68.339501
20
112.125380
11
68.508429
21
111.973350
0
LINE
8
Layer 1
10
68.508429
20
111.973350
11
68.787159
21
111.795970
0
LINE
8
Layer 1
10
68.787159
20
111.795970
11
69.099675
21
111.610150
0
LINE
8
Layer 1
10
69.099675
20
111.610150
11
69.555780
21
111.339870
0
LINE
8
Layer 1
10
69.555780
20
111.339870
11
69.935867
21
111.086480
0
LINE
8
Layer 1
10
69.935867
20
111.086480
11
70.290614
21
110.917550
0
LINE
8
Layer 1
10
70.290614
20
110.917550
11
70.560898
21
110.782410
0
LINE
8
Layer 1
10
70.560898
20
110.782410
11
70.746719
21
110.799310
0
LINE
8
Layer 1
10
70.746719
20
110.799310
11
70.890307
21
110.942900
0
LINE
8
Layer 1
10
70.890307
20
110.942900
11
71.042342
21
111.103380
0
LINE
8
Layer 1
10
71.042342
20
111.103380
11
71.329519
21
111.339880
0
LINE
8
Layer 1
10
71.329519
20
111.339880
11
71.506893
21
111.441240
0
LINE
8
Layer 1
10
71.506893
20
111.441240
11
71.827855
21
111.610160
0
LINE
8
Layer 1
10
71.827855
20
111.610160
11
72.064353
21
111.703060
0
LINE
8
Layer 1
10
72.064353
20
111.703060
11
72.326191
21
111.753760
0
LINE
8
Layer 1
10
72.326191
20
111.753760
11
72.588029
21
111.761760
0
LINE
8
Layer 1
10
72.588029
20
111.761760
11
72.959669
21
111.736460
0
LINE
8
Layer 1
10
72.959669
20
111.736460
11
73.339756
21
111.651960
0
LINE
8
Layer 1
10
73.339756
20
111.651960
11
73.669165
21
111.508370
0
LINE
8
Layer 1
10
73.669165
20
111.508370
11
73.931003
21
111.314100
0
LINE
8
Layer 1
10
73.931003
20
111.314100
11
74.125269
21
111.069160
0
LINE
8
Layer 1
10
74.125269
20
111.069160
11
74.344875
21
110.748190
0
LINE
8
Layer 1
10
74.344875
20
110.748190
11
74.471571
21
110.452570
0
LINE
8
Layer 1
10
74.471571
20
110.452570
11
74.598267
21
110.131610
0
LINE
8
Layer 1
10
74.598267
20
110.131610
11
74.632057
21
109.810650
0
LINE
8
Layer 1
10
74.632057
20
109.810650
11
74.657397
21
109.557250
0
LINE
8
Layer 1
10
74.657397
20
109.557250
11
74.632057
21
109.253180
0
LINE
8
Layer 1
10
74.632057
20
109.253180
11
74.471576
21
108.949120
0
LINE
8
Layer 1
10
74.471576
20
108.949120
11
74.302648
21
108.543690
0
LINE
8
Layer 1
10
74.302648
20
108.543690
11
74.125274
21
108.290300
0
LINE
8
Layer 1
10
74.125274
20
108.290300
11
73.846544
21
108.003120
0
LINE
8
Layer 1
10
73.846544
20
108.003120
11
73.356654
21
107.732840
0
LINE
8
Layer 1
10
73.356654
20
107.732840
11
72.959674
21
107.631480
0
LINE
8
Layer 1
10
72.959674
20
107.631480
11
72.588034
21
107.580780
0
LINE
8
Layer 1
10
72.588034
20
107.580780
11
72.148822
21
107.588780
0
LINE
8
Layer 1
10
72.148822
20
107.588780
11
71.734950
21
107.740810
0
LINE
8
Layer 1
10
71.734950
20
107.740810
11
71.270399
21
107.985760
0
LINE
8
Layer 1
10
71.270399
20
107.985760
11
70.949437
21
108.137790
0
LINE
8
Layer 1
10
70.949437
20
108.137790
11
70.746724
21
108.433420
0
LINE
8
Layer 1
10
70.746724
20
108.433420
11
70.679154
21
108.509420
0
LINE
8
Layer 1
10
70.679154
20
108.509420
11
70.679154
21
108.602320
0
LINE
8
Layer 1
10
70.679154
20
108.602320
11
70.535565
21
108.627620
0
LINE
8
Layer 1
10
70.535565
20
108.627620
11
70.341299
21
108.602320
0
LINE
8
Layer 1
10
70.341299
20
108.602320
11
70.231496
21
108.517820
0
LINE
8
Layer 1
10
70.231496
20
108.517820
11
69.935873
21
108.365790
0
LINE
8
Layer 1
10
69.935873
20
108.365790
11
68.601345
21
107.723860
0
LINE
8
Layer 1
10
68.601345
20
107.723860
11
68.373293
21
107.614060
0
LINE
8
Layer 1
10
68.373293
20
107.614060
11
68.170580
21
107.402900
0
LINE
8
Layer 1
10
68.170580
20
107.402900
11
68.145240
21
106.997470
0
LINE
8
Layer 1
10
68.145240
20
106.997470
11
67.976312
21
103.053010
0
LINE
8
Layer 1
10
67.976312
20
103.053010
11
68.018542
21
102.757390
0
LINE
8
Layer 1
10
68.018542
20
102.757390
11
68.128345
21
102.571570
0
LINE
8
Layer 1
10
68.128345
20
102.571570
11
68.297272
21
102.487070
0
LINE
8
Layer 1
10
68.297272
20
102.487070
11
69.184142
21
102.444870
0
LINE
8
Layer 1
10
69.184142
20
102.444870
11
72.673132
21
102.271630
0
LINE
8
Layer 1
10
72.673132
20
102.271630
11
77.808024
21
102.125190
0
LINE
8
Layer 1
10
77.808024
20
102.125190
11
83.534667
21
101.888690
0
LINE
8
Layer 1
10
83.534667
20
101.888690
11
88.619386
21
101.601520
0
LINE
8
Layer 1
10
88.619386
20
101.601520
11
89.920128
21
101.533920
0
LINE
8
Layer 1
10
89.920128
20
101.533920
11
90.376233
21
101.533920
0
LINE
8
Layer 1
10
90.376233
20
101.533920
11
90.545160
21
101.584620
0
LINE
8
Layer 1
10
90.545160
20
101.584620
11
90.714088
21
101.770450
0
LINE
8
Layer 1
10
90.714088
20
101.770450
11
90.680298
21
102.108300
0
LINE
8
Layer 1
10
90.680298
20
102.108300
11
90.697188
21
102.412370
0
LINE
8
Layer 1
10
90.697188
20
102.412370
11
90.578939
21
102.479970
0
LINE
8
Layer 1
10
90.578939
20
102.479970
11
89.937014
21
102.479970
0
LINE
8
Layer 1
10
89.937014
20
102.479970
11
89.413339
21
102.530670
0
LINE
8
Layer 1
10
89.413339
20
102.530670
11
89.345769
21
102.598270
0
LINE
8
Layer 1
10
89.345769
20
102.598270
11
89.311979
21
102.919230
0
LINE
8
Layer 1
10
89.311979
20
102.919230
11
89.311979
21
103.257090
0
LINE
8
Layer 1
10
89.311979
20
103.257090
11
89.345769
21
103.527370
0
LINE
8
Layer 1
10
89.345769
20
103.527370
11
89.599160
21
103.544270
0
LINE
8
Layer 1
10
89.599160
20
103.544270
11
90.072157
21
103.527370
0
LINE
8
Layer 1
10
90.072157
20
103.527370
11
90.595832
21
103.561170
0
LINE
8
Layer 1
10
90.595832
20
103.561170
11
90.697189
21
103.628770
0
LINE
8
Layer 1
10
90.697189
20
103.628770
11
90.781649
21
103.848370
0
LINE
8
Layer 1
10
90.781649
20
103.848370
11
90.764759
21
104.338260
0
LINE
8
Layer 1
10
90.764759
20
104.338260
11
90.595831
21
104.557870
0
LINE
8
Layer 1
10
90.595831
20
104.557870
11
90.021478
21
104.591670
0
LINE
8
Layer 1
10
90.021478
20
104.591670
11
87.267959
21
104.676170
0
LINE
8
Layer 1
10
87.267959
20
104.676170
11
83.348840
21
104.861990
0
LINE
8
Layer 1
10
83.348840
20
104.861990
11
80.173002
21
105.014020
0
LINE
8
Layer 1
10
80.173002
20
105.014020
11
79.852189
21
105.008020
0
LINE
8
Layer 1
10
79.852189
20
105.008020
11
79.463977
21
105.073720
0
LINE
8
Layer 1
10
79.463977
20
105.073720
11
79.022013
21
105.175250
0
LINE
8
Layer 1
10
79.022013
20
105.175250
11
78.532269
21
105.396240
0
LINE
8
Layer 1
10
78.532269
20
105.396240
11
78.251562
21
105.581380
0
LINE
8
Layer 1
10
78.251562
20
105.581380
11
77.857377
21
105.909870
0
LINE
8
Layer 1
10
77.857377
20
105.909870
11
77.630423
21
106.208500
0
LINE
8
Layer 1
10
77.630423
20
106.208500
11
77.337771
21
106.650460
0
LINE
8
Layer 1
10
77.337771
20
106.650460
11
77.158596
21
107.116310
0
LINE
8
Layer 1
10
77.158596
20
107.116310
11
77.045119
21
107.582170
0
LINE
8
Layer 1
10
77.045119
20
107.582170
11
77.027199
21
108.071910
0
LINE
8
Layer 1
10
77.027199
20
108.071910
11
77.039139
21
108.412340
0
LINE
8
Layer 1
10
77.039139
20
108.412340
11
77.068999
21
109.129040
0
LINE
8
Layer 1
10
77.068999
20
109.129040
11
77.182476
21
111.398590
0
LINE
8
Layer 1
10
77.182476
20
111.398590
11
77.236226
21
112.915600
0
LINE
8
Layer 1
10
77.236226
20
112.915600
11
77.224286
21
113.273950
0
LINE
8
Layer 1
10
77.224286
20
113.273950
11
77.319846
21
113.560630
0
LINE
8
Layer 1
10
77.319846
20
113.560630
11
77.546801
21
114.110100
0
LINE
8
Layer 1
10
77.546801
20
114.110100
11
77.773756
21
114.790960
0
LINE
8
Layer 1
10
77.773756
20
114.790960
11
78.036545
21
115.280710
0
LINE
8
Layer 1
10
78.036545
20
115.280710
11
78.406839
21
115.435990
0
LINE
8
Layer 1
10
78.406839
20
115.435990
11
89.862076
21
115.471790
0
LINE
8
Layer 1
10
89.862076
20
115.471790
11
90.447380
21
115.543490
0
LINE
8
Layer 1
10
90.447380
20
115.543490
11
90.925179
21
115.567390
0
LINE
8
Layer 1
10
90.925179
20
115.567390
11
91.092409
21
115.674890
0
LINE
8
Layer 1
10
91.092409
20
115.674890
11
91.319364
21
115.782400
0
LINE
8
Layer 1
10
91.319364
20
115.782400
11
91.331304
21
116.152690
0
LINE
8
Layer 1
10
91.331304
20
116.152690
11
91.355194
21
116.463260
0
LINE
8
Layer 1
10
91.355194
20
116.463260
11
90.937119
21
116.654380
0
LINE
8
Layer 1
10
90.937119
20
116.654380
11
90.351815
21
116.761890
0
LINE
8
Layer 1
10
90.351815
20
116.761890
11
89.933741
21
116.749890
0
LINE
8
Layer 1
10
89.933741
20
116.749890
11
79.911902
21
117.848830
0
LINE
8
Layer 1
10
79.911902
20
117.848830
11
79.505773
21
117.872730
0
LINE
8
Layer 1
10
79.505773
20
117.872730
11
79.290763
21
118.147460
0
LINE
8
Layer 1
10
79.290763
20
118.147460
11
79.302713
21
118.577480
0
LINE
8
Layer 1
10
79.302713
20
118.577480
11
79.529668
21
119.031390
0
LINE
8
Layer 1
10
79.529668
20
119.031390
11
80.998900
21
122.758230
0
LINE
8
Layer 1
10
80.998900
20
122.758230
11
81.357250
21
122.853830
0
LINE
8
Layer 1
10
81.357250
20
122.853830
11
90.590720
21
123.033000
0
LINE
8
Layer 1
10
90.590720
20
123.033000
11
91.223804
21
123.045000
0
LINE
8
Layer 1
10
91.223804
20
123.045000
11
91.379089
21
123.092800
0
LINE
8
Layer 1
10
91.379089
20
123.092800
11
91.546318
21
123.224190
0
LINE
8
Layer 1
10
91.546318
20
123.224190
11
91.737438
21
123.486980
0
LINE
8
Layer 1
10
91.737438
20
123.486980
11
91.701598
21
123.737820
0
LINE
8
Layer 1
10
91.701598
20
123.737820
11
91.534368
21
124.072280
0
LINE
8
Layer 1
10
91.534368
20
124.072280
11
91.223799
21
124.215620
0
LINE
8
Layer 1
10
91.223799
20
124.215620
11
90.507100
21
124.311220
0
LINE
8
Layer 1
10
90.507100
20
124.311220
11
82.599523
21
125.171260
0
LINE
8
Layer 1
10
82.599523
20
125.171260
11
82.348678
21
125.254860
0
LINE
8
Layer 1
10
82.348678
20
125.254860
11
82.193393
21
125.434030
0
LINE
8
Layer 1
10
82.193393
20
125.434030
11
82.121723
21
125.756550
0
LINE
8
Layer 1
10
82.121723
20
125.756550
11
83.865691
21
130.474810
0
LINE
8
Layer 1
10
83.865691
20
130.474810
11
84.104590
21
130.630100
0
LINE
8
Layer 1
10
84.104590
20
130.630100
11
84.570445
21
130.809270
0
LINE
8
Layer 1
10
84.570445
20
130.809270
11
91.474643
21
130.606210
0
LINE
8
Layer 1
10
91.474643
20
130.606210
11
91.713543
21
130.677910
0
LINE
8
Layer 1
10
91.713543
20
130.677910
11
91.880773
21
130.845140
0
LINE
8
Layer 1
10
91.880773
20
130.845140
11
91.988278
21
131.036260
0
LINE
8
Layer 1
10
91.988278
20
131.036260
11
92.000218
21
131.310990
0
LINE
8
Layer 1
10
92.000218
20
131.310990
11
91.868823
21
131.597670
0
LINE
8
Layer 1
10
91.868823
20
131.597670
11
91.558253
21
131.729070
0
LINE
8
Layer 1
10
91.558253
20
131.729070
11
90.972949
21
131.800770
0
LINE
8
Layer 1
10
90.972949
20
131.800770
11
85.358808
21
132.194950
0
LINE
8
Layer 1
10
85.358808
20
132.194950
11
85.024349
21
132.409960
0
LINE
8
Layer 1
10
85.024349
20
132.409960
11
84.761559
21
132.720530
0
LINE
8
Layer 1
10
84.761559
20
132.720530
11
84.892954
21
133.496950
0
LINE
8
Layer 1
10
84.892954
20
133.496950
11
85.203524
21
135.013970
0
LINE
8
Layer 1
10
85.203524
20
135.013970
11
85.358808
21
136.148740
0
LINE
8
Layer 1
10
85.358808
20
136.148740
11
85.454368
21
137.032670
0
LINE
8
Layer 1
10
85.454368
20
137.032670
11
85.502148
21
137.809090
0
LINE
8
Layer 1
10
85.502148
20
137.809090
11
85.621598
21
137.940490
0
LINE
8
Layer 1
10
85.621598
20
137.940490
11
85.956057
21
137.964390
0
LINE
8
Layer 1
10
85.956057
20
137.964390
11
91.737428
21
138.095780
0
LINE
8
Layer 1
10
91.737428
20
138.095780
11
92.000218
21
138.191380
0
LINE
8
Layer 1
10
92.000218
20
138.191380
11
92.143557
21
138.334720
0
LINE
8
Layer 1
10
92.143557
20
138.334720
11
92.274952
21
138.645290
0
LINE
8
Layer 1
10
92.274952
20
138.645290
11
92.143557
21
138.931970
0
LINE
8
Layer 1
10
92.143557
20
138.931970
11
91.940493
21
139.158920
0
LINE
8
Layer 1
10
91.940493
20
139.158920
11
91.570198
21
139.254520
0
LINE
8
Layer 1
10
91.570198
20
139.254520
11
90.949059
21
139.314220
0
LINE
8
Layer 1
10
90.949059
20
139.314220
11
85.884387
21
139.565060
0
LINE
8
Layer 1
10
85.884387
20
139.565060
11
85.526038
21
139.803960
0
LINE
8
Layer 1
10
85.526038
20
139.803960
11
85.227413
21
141.117910
0
LINE
8
Layer 1
10
85.227413
20
141.117910
11
84.988514
21
142.264630
0
LINE
8
Layer 1
10
84.988514
20
142.264630
11
84.630164
21
143.781640
0
LINE
8
Layer 1
10
84.630164
20
143.781640
11
84.283760
21
144.820860
0
LINE
8
Layer 1
10
84.283760
20
144.820860
11
84.295700
21
145.250870
0
LINE
8
Layer 1
10
84.295700
20
145.250870
11
84.582380
21
145.453940
0
LINE
8
Layer 1
10
84.582380
20
145.453940
11
84.773499
21
145.537540
0
LINE
8
Layer 1
10
84.773499
20
145.537540
11
91.606028
21
145.525640
0
LINE
8
Layer 1
10
91.606028
20
145.525640
11
91.928543
21
145.549540
0
LINE
8
Layer 1
10
91.928543
20
145.549540
11
92.227167
21
145.597340
0
LINE
8
Layer 1
10
92.227167
20
145.597340
11
92.466067
21
145.764570
0
LINE
8
Layer 1
10
92.466067
20
145.764570
11
92.609407
21
146.146810
0
LINE
8
Layer 1
10
92.609407
20
146.146810
11
92.466067
21
146.433490
0
LINE
8
Layer 1
10
92.466067
20
146.433490
11
92.215222
21
146.648500
0
LINE
8
Layer 1
10
92.215222
20
146.648500
11
91.725478
21
146.720200
0
LINE
8
Layer 1
10
91.725478
20
146.720200
11
91.140174
21
146.768000
0
LINE
8
Layer 1
10
91.140174
20
146.768000
11
83.853736
21
147.377190
0
LINE
8
Layer 1
10
83.853736
20
147.377190
11
83.041477
21
147.699710
0
LINE
8
Layer 1
10
83.041477
20
147.699710
11
82.503953
21
148.500020
0
LINE
8
Layer 1
10
82.503953
20
148.500020
11
81.620024
21
149.742300
0
LINE
8
Layer 1
10
81.620024
20
149.742300
11
81.034720
21
150.542610
0
LINE
8
Layer 1
10
81.034720
20
150.542610
11
80.509141
21
151.080140
0
LINE
8
Layer 1
10
80.509141
20
151.080140
11
80.091067
21
151.462370
0
LINE
8
Layer 1
10
80.091067
20
151.462370
11
79.577433
21
152.167130
0
LINE
8
Layer 1
10
79.577433
20
152.167130
11
79.457983
21
152.406030
0
LINE
8
Layer 1
10
79.457983
20
152.406030
11
79.505763
21
152.632980
0
LINE
8
Layer 1
10
79.505763
20
152.632980
11
79.720772
21
152.859940
0
LINE
8
Layer 1
10
79.720772
20
152.859940
11
80.437500
21
152.859940
0
LINE
8
Layer 1
10
80.437500
20
152.859940
11
91.737452
21
152.955540
0
LINE
8
Layer 1
10
91.737452
20
152.955540
11
92.334701
21
153.003340
0
LINE
8
Layer 1
10
92.334701
20
153.003340
11
92.609436
21
153.098940
0
LINE
8
Layer 1
10
92.609436
20
153.098940
11
92.860280
21
153.361730
0
LINE
8
Layer 1
10
92.860280
20
153.361730
11
92.872220
21
153.636460
0
LINE
8
Layer 1
10
92.872220
20
153.636460
11
92.788610
21
153.923140
0
LINE
8
Layer 1
10
92.788610
20
153.923140
11
92.478041
21
154.114260
0
LINE
8
Layer 1
10
92.478041
20
154.114260
11
91.868847
21
154.233710
0
LINE
8
Layer 1
10
91.868847
20
154.233710
11
78.406853
21
155.535710
0
LINE
8
Layer 1
10
78.406853
20
155.535710
11
78.132119
21
155.619310
0
LINE
8
Layer 1
10
78.132119
20
155.619310
11
77.857384
21
155.762650
0
LINE
8
Layer 1
10
77.857384
20
155.762650
11
77.522925
21
156.049330
0
LINE
8
Layer 1
10
77.522925
20
156.049330
11
77.403475
21
156.347950
0
LINE
8
Layer 1
10
77.403475
20
156.347950
11
77.391535
21
156.921310
0
LINE
8
Layer 1
10
77.391535
20
156.921310
11
77.654325
21
160.218130
0
LINE
8
Layer 1
10
77.654325
20
160.218130
11
77.749885
21
160.289830
0
LINE
8
Layer 1
10
77.749885
20
160.289830
11
92.215256
21
160.433170
0
LINE
8
Layer 1
10
92.215256
20
160.433170
11
92.573606
21
160.457070
0
LINE
8
Layer 1
10
92.573606
20
160.457070
11
92.920010
21
160.552670
0
LINE
8
Layer 1
10
92.920010
20
160.552670
11
93.194745
21
160.887120
0
LINE
8
Layer 1
10
93.194745
20
160.887120
11
93.242525
21
161.126020
0
LINE
8
Layer 1
10
93.242525
20
161.126020
11
93.087240
21
161.400760
0
LINE
8
Layer 1
10
93.087240
20
161.400760
11
92.848340
21
161.591880
0
LINE
8
Layer 1
10
92.848340
20
161.591880
11
92.263036
21
161.663580
0
LINE
8
Layer 1
10
92.263036
20
161.663580
11
91.689677
21
161.675480
0
LINE
8
Layer 1
10
91.689677
20
161.675480
11
78.836878
21
162.869980
0
LINE
8
Layer 1
10
78.836878
20
162.869980
11
78.621868
21
163.025270
0
LINE
8
Layer 1
10
78.621868
20
163.025270
11
78.215739
21
163.240280
0
LINE
8
Layer 1
10
78.215739
20
163.240280
11
77.941004
21
163.347780
0
LINE
8
Layer 1
10
77.941004
20
163.347780
11
77.797664
21
163.550850
0
LINE
8
Layer 1
10
77.797664
20
163.550850
11
77.773774
21
164.124200
0
LINE
8
Layer 1
10
77.773774
20
164.124200
11
77.809604
21
166.095130
0
LINE
8
Layer 1
10
77.809604
20
166.095130
11
77.821554
21
166.692380
0
LINE
8
Layer 1
10
77.821554
20
166.692380
11
77.941004
21
166.955160
0
LINE
8
Layer 1
10
77.941004
20
166.955160
11
78.418803
21
167.325460
0
LINE
8
Layer 1
10
78.418803
20
167.325460
11
79.864146
21
167.755480
0
LINE
8
Layer 1
10
79.864146
20
167.755480
11
88.476477
21
170.216140
0
LINE
8
Layer 1
10
88.476477
20
170.216140
11
93.361974
21
171.649540
0
LINE
8
Layer 1
10
93.361974
20
171.649540
11
93.660599
21
171.745140
0
LINE
8
Layer 1
10
93.660599
20
171.745140
11
98.223582
21
171.554020
0
LINE
8
Layer 1
10
98.223582
20
171.554020
11
103.300200
21
171.279290
0
LINE
8
Layer 1
10
103.300200
20
171.279290
11
109.320470
21
170.920940
0
LINE
8
Layer 1
10
109.320470
20
170.920940
11
119.736500
21
170.299800
0
LINE
8
Layer 1
10
119.736500
20
170.299800
11
124.992290
21
169.905620
0
LINE
8
Layer 1
10
124.992290
20
169.905620
11
126.807930
21
169.798110
0
LINE
8
Layer 1
10
126.807930
20
169.798110
11
130.952830
21
168.531940
0
LINE
8
Layer 1
10
130.952830
20
168.531940
11
135.312740
21
167.217990
0
LINE
8
Layer 1
10
135.312740
20
167.217990
11
139.087360
21
166.071280
0
LINE
8
Layer 1
10
139.087360
20
166.071280
11
143.722010
21
164.625930
0
LINE
8
Layer 1
10
143.722010
20
164.625930
11
147.819140
21
163.347820
0
LINE
8
Layer 1
10
147.819140
20
163.347820
11
148.213330
21
163.108920
0
LINE
8
Layer 1
10
148.213330
20
163.108920
11
148.500000
21
162.750570
0
LINE
8
Layer 1
10
148.500000
20
162.750570
11
148.523900
21
162.033870
0
LINE
8
Layer 1
10
148.523900
20
162.033870
11
148.344740
21
160.003230
0
LINE
8
Layer 1
10
148.344740
20
160.003230
11
148.141670
21
159.680710
0
LINE
8
Layer 1
10
148.141670
20
159.680710
11
147.795260
21
159.453760
0
LINE
8
Layer 1
10
147.795260
20
159.453760
11
147.317460
21
159.405960
0
LINE
8
Layer 1
10
147.317460
20
159.405960
11
127.106560
21
159.668750
0
LINE
8
Layer 1
10
127.106560
20
159.668750
11
126.712370
21
159.680650
0
LINE
8
Layer 1
10
126.712370
20
159.680650
11
126.377920
21
159.513420
0
LINE
8
Layer 1
10
126.377920
20
159.513420
11
126.174850
21
159.214800
0
LINE
8
Layer 1
10
126.174850
20
159.214800
11
126.258450
21
158.796720
0
LINE
8
Layer 1
10
126.258450
20
158.796720
11
126.569020
21
158.569770
0
LINE
8
Layer 1
10
126.569020
20
158.569770
11
127.237930
21
158.438370
0
LINE
8
Layer 1
10
127.237930
20
158.438370
11
127.954630
21
158.366670
0
LINE
8
Layer 1
10
127.954630
20
158.366670
11
146.863540
21
155.929900
0
LINE
8
Layer 1
10
146.863540
20
155.929900
11
147.496620
21
155.774610
0
LINE
8
Layer 1
10
147.496620
20
155.774610
11
147.866910
21
155.475990
0
LINE
8
Layer 1
10
147.866910
20
155.475990
11
148.081920
21
154.771230
0
LINE
8
Layer 1
10
148.081920
20
154.771230
11
148.081920
21
154.353160
0
LINE
8
Layer 1
10
148.081920
20
154.353160
11
147.902740
21
152.609190
0
LINE
8
Layer 1
10
147.902740
20
152.609190
11
147.580240
21
152.167230
0
LINE
8
Layer 1
10
147.580240
20
152.167230
11
147.162160
21
152.011940
0
LINE
8
Layer 1
10
147.162160
20
152.011940
11
146.839650
21
151.964140
0
LINE
8
Layer 1
10
146.839650
20
151.964140
11
126.736250
21
152.155260
0
LINE
8
Layer 1
10
126.736250
20
152.155260
11
126.246500
21
152.119460
0
LINE
8
Layer 1
10
126.246500
20
152.119460
11
125.864260
21
151.964170
0
LINE
8
Layer 1
10
125.864260
20
151.964170
11
125.697030
21
151.653600
0
LINE
8
Layer 1
10
125.697030
20
151.653600
11
125.720930
21
151.295260
0
LINE
8
Layer 1
10
125.720930
20
151.295260
11
126.043450
21
151.044410
0
LINE
8
Layer 1
10
126.043450
20
151.044410
11
126.616810
21
150.936910
0
LINE
8
Layer 1
10
126.616810
20
150.936910
11
127.584350
21
150.757730
0
LINE
8
Layer 1
10
127.584350
20
150.757730
11
146.517140
21
148.368730
0
LINE
8
Layer 1
10
146.517140
20
148.368730
11
147.114390
21
148.177620
0
LINE
8
Layer 1
10
147.114390
20
148.177620
11
147.532470
21
147.747600
0
LINE
8
Layer 1
10
147.532470
20
147.747600
11
147.651920
21
147.138400
0
LINE
8
Layer 1
10
147.651920
20
147.138400
11
147.651920
21
146.350030
0
LINE
8
Layer 1
10
147.651920
20
146.350030
11
147.604120
21
145.800560
0
LINE
8
Layer 1
10
147.604120
20
145.800560
11
147.544420
21
145.203310
0
LINE
8
Layer 1
10
147.544420
20
145.203310
11
147.281630
21
144.761350
0
LINE
8
Layer 1
10
147.281630
20
144.761350
11
146.911340
21
144.462730
0
LINE
8
Layer 1
10
146.911340
20
144.462730
11
146.230470
21
144.426930
0
LINE
8
Layer 1
10
146.230470
20
144.426930
11
125.888170
21
144.570270
0
LINE
8
Layer 1
10
125.888170
20
144.570270
11
125.553710
21
144.486670
0
LINE
8
Layer 1
10
125.553710
20
144.486670
11
125.326760
21
144.140260
0
LINE
8
Layer 1
10
125.326760
20
144.140260
11
125.386460
21
143.710240
0
LINE
8
Layer 1
10
125.386460
20
143.710240
11
125.720920
21
143.507180
0
LINE
8
Layer 1
10
125.720920
20
143.507180
11
126.616800
21
143.339950
0
LINE
8
Layer 1
10
126.616800
20
143.339950
11
127.763510
21
143.148830
0
LINE
8
Layer 1
10
127.763510
20
143.148830
11
145.991550
21
140.903170
0
LINE
8
Layer 1
10
145.991550
20
140.903170
11
146.433520
21
140.819570
0
LINE
8
Layer 1
10
146.433520
20
140.819570
11
146.863540
21
140.520940
0
LINE
8
Layer 1
10
146.863540
20
140.520940
11
147.150220
21
140.090920
0
LINE
8
Layer 1
10
147.150220
20
140.090920
11
147.186020
21
139.445890
0
LINE
8
Layer 1
10
147.186020
20
139.445890
11
147.054630
21
137.701930
0
LINE
8
Layer 1
10
147.054630
20
137.701930
11
146.827670
21
137.248020
0
LINE
8
Layer 1
10
146.827670
20
137.248020
11
146.325980
21
136.997170
0
LINE
8
Layer 1
10
146.325980
20
136.997170
11
145.812350
21
136.925470
0
LINE
8
Layer 1
10
145.812350
20
136.925470
11
125.589500
21
137.116590
0
LINE
8
Layer 1
10
125.589500
20
137.116590
11
125.075860
21
137.009090
0
LINE
8
Layer 1
10
125.075860
20
137.009090
11
124.860850
21
136.734350
0
LINE
8
Layer 1
10
124.860850
20
136.734350
11
124.920550
21
136.352110
0
LINE
8
Layer 1
10
124.920550
20
136.352110
11
125.243060
21
135.981820
0
LINE
8
Layer 1
10
125.243060
20
135.981820
11
125.888090
21
135.910120
0
LINE
8
Layer 1
10
125.888090
20
135.910120
11
127.070640
21
135.766780
0
LINE
8
Layer 1
10
127.070640
20
135.766780
11
145.883990
21
133.341950
0
LINE
8
Layer 1
10
145.883990
20
133.341950
11
146.433460
21
133.031380
0
LINE
8
Layer 1
10
146.433460
20
133.031380
11
146.755970
21
132.434130
0
LINE
8
Layer 1
10
146.755970
20
132.434130
11
146.732070
21
131.490480
0
LINE
8
Layer 1
10
146.732070
20
131.490480
11
146.600680
21
130.260140
0
LINE
8
Layer 1
10
146.600680
20
130.260140
11
146.433450
21
129.830120
0
LINE
8
Layer 1
10
146.433450
20
129.830120
11
145.943700
21
129.531500
0
LINE
8
Layer 1
10
145.943700
20
129.531500
11
145.298680
21
129.507600
0
LINE
8
Layer 1
10
145.298680
20
129.507600
11
125.207220
21
129.555400
0
LINE
8
Layer 1
10
125.207220
20
129.555400
11
124.753310
21
129.507600
0
LINE
8
Layer 1
10
124.753310
20
129.507600
11
124.466630
21
129.256760
0
LINE
8
Layer 1
10
124.466630
20
129.256760
11
124.478530
21
128.838680
0
LINE
8
Layer 1
10
124.478530
20
128.838680
11
124.801050
21
128.444500
0
LINE
8
Layer 1
10
124.801050
20
128.444500
11
125.625250
21
128.301160
0
LINE
8
Layer 1
10
125.625250
20
128.301160
11
145.071680
21
125.876330
0
LINE
8
Layer 1
10
145.071680
20
125.876330
11
145.633100
21
125.756880
0
LINE
8
Layer 1
10
145.633100
20
125.756880
11
146.146730
21
125.326860
0
LINE
8
Layer 1
10
146.146730
20
125.326860
11
146.290070
21
124.395150
0
LINE
8
Layer 1
10
146.290070
20
124.395150
11
146.325870
21
123.594830
0
LINE
8
Layer 1
10
146.325870
20
123.594830
11
146.254170
21
122.639240
0
LINE
8
Layer 1
10
146.254170
20
122.639240
11
145.824150
21
122.209220
0
LINE
8
Layer 1
10
145.824150
20
122.209220
11
145.418030
21
122.006150
0
LINE
8
Layer 1
10
145.418030
20
122.006150
11
124.765150
21
121.994250
0
LINE
8
Layer 1
10
124.765150
20
121.994250
11
124.287350
21
121.958450
0
LINE
8
Layer 1
10
124.287350
20
121.958450
11
124.000670
21
121.659830
0
LINE
8
Layer 1
10
124.000670
20
121.659830
11
124.024570
21
121.086470
0
LINE
8
Layer 1
10
124.024570
20
121.086470
11
124.406810
21
120.883400
0
LINE
8
Layer 1
10
124.406810
20
120.883400
11
125.493810
21
120.680340
0
LINE
8
Layer 1
10
125.493810
20
120.680340
11
144.808840
21
118.279400
0
LINE
8
Layer 1
10
144.808840
20
118.279400
11
145.346370
21
118.136060
0
LINE
8
Layer 1
10
145.346370
20
118.136060
11
145.740550
21
117.717980
0
LINE
8
Layer 1
10
145.740550
20
117.717980
11
145.883890
21
116.965450
0
LINE
8
Layer 1
10
145.883890
20
116.965450
11
145.859990
21
116.093470
0
LINE
8
Layer 1
10
145.859990
20
116.093470
11
145.752480
21
115.305100
0
LINE
8
Layer 1
10
145.752480
20
115.305100
11
145.561370
21
114.791460
0
LINE
8
Layer 1
10
145.561370
20
114.791460
11
145.059680
21
114.457000
0
LINE
8
Layer 1
10
145.059680
20
114.457000
11
144.450480
21
114.361400
0
LINE
8
Layer 1
10
144.450480
20
114.361400
11
124.466530
21
114.433100
0
LINE
8
Layer 1
10
124.466530
20
114.433100
11
124.000670
21
114.373400
0
LINE
8
Layer 1
10
124.000670
20
114.373400
11
123.666220
21
114.146450
0
LINE
8
Layer 1
10
123.666220
20
114.146450
11
123.666220
21
113.740320
0
LINE
8
Layer 1
10
123.666220
20
113.740320
11
123.893170
21
113.429750
0
LINE
8
Layer 1
10
123.893170
20
113.429750
11
124.442640
21
113.262520
0
LINE
8
Layer 1
10
124.442640
20
113.262520
11
125.147390
21
113.190820
0
LINE
8
Layer 1
10
125.147390
20
113.190820
11
142.634840
21
111.219890
0
LINE
8
Layer 1
10
142.634840
20
111.219890
11
142.921520
21
110.885440
0
LINE
8
Layer 1
10
142.921520
20
110.885440
11
142.933420
21
110.467360
0
LINE
8
Layer 1
10
142.933420
20
110.467360
11
142.945320
21
108.902570
0
LINE
8
Layer 1
10
142.945320
20
108.902570
11
142.885620
21
108.281430
0
LINE
8
Layer 1
10
142.885620
20
108.281430
11
142.682550
21
108.161980
0
LINE
8
Layer 1
10
142.682550
20
108.161980
11
138.573480
21
108.341150
0
LINE
8
Layer 1
10
138.573480
20
108.341150
11
138.298750
21
108.257550
0
LINE
8
Layer 1
10
138.298750
20
108.257550
11
138.083740
21
108.030590
0
LINE
8
Layer 1
10
138.083740
20
108.030590
11
138.107640
21
107.516960
0
LINE
8
Layer 1
10
138.107640
20
107.516960
11
137.880680
21
104.255980
0
LINE
8
Layer 1
10
137.880680
20
104.255980
11
137.797080
21
103.885690
0
LINE
8
Layer 1
10
137.797080
20
103.885690
11
137.713480
21
103.646790
0
LINE
8
Layer 1
10
137.713480
20
103.646790
11
137.582090
21
103.324270
0
LINE
8
Layer 1
10
137.582090
20
103.324270
11
137.426800
21
103.037590
0
LINE
8
Layer 1
10
137.426800
20
103.037590
11
137.223740
21
102.727020
0
LINE
8
Layer 1
10
137.223740
20
102.727020
11
136.925110
21
102.416450
0
LINE
8
Layer 1
10
136.925110
20
102.416450
11
136.674270
21
102.177550
0
LINE
8
Layer 1
10
136.674270
20
102.177550
11
136.065080
21
101.878930
0
LINE
8
Layer 1
10
136.065080
20
101.878930
11
135.611170
21
101.747540
0
LINE
8
Layer 1
10
135.611170
20
101.747540
11
134.930300
21
101.663940
0
LINE
8
Layer 1
10
134.930300
20
101.663940
11
134.237490
21
101.687840
0
LINE
8
Layer 1
10
134.237490
20
101.687840
11
123.534990
21
102.392370
0
LINE
8
Layer 1
10
123.534990
20
102.392370
11
123.140810
21
102.380470
0
LINE
8
Layer 1
10
123.140810
20
102.380470
11
122.973580
21
102.129620
0
LINE
8
Layer 1
10
122.973580
20
102.129620
11
122.973580
21
101.627940
0
LINE
8
Layer 1
10
122.973580
20
101.627940
11
123.140810
21
101.412930
0
LINE
8
Layer 1
10
123.140810
20
101.412930
11
124.395030
21
101.293480
0
LINE
8
Layer 1
10
124.395030
20
101.293480
11
124.418930
21
100.660390
0
LINE
8
Layer 1
10
124.418930
20
100.660390
11
124.383130
21
100.361770
0
LINE
8
Layer 1
10
124.383130
20
100.361770
11
123.057240
21
100.361770
0
LINE
8
Layer 1
10
123.057240
20
100.361770
11
122.913900
21
100.290070
0
LINE
8
Layer 1
10
122.913900
20
100.290070
11
122.866100
21
99.967550
0
LINE
8
Layer 1
10
122.866100
20
99.967550
11
122.866100
21
99.537530
0
LINE
8
Layer 1
10
122.866100
20
99.537530
11
123.116950
21
99.418080
0
LINE
8
Layer 1
10
123.116950
20
99.418080
11
125.959850
21
99.215020
0
LINE
8
Layer 1
10
125.959850
20
99.215020
11
133.616580
21
98.737220
0
LINE
8
Layer 1
10
133.616580
20
98.737220
11
140.473000
21
98.331090
0
LINE
8
Layer 1
10
140.473000
20
98.331090
11
140.723850
21
98.522210
0
LINE
8
Layer 1
10
140.723850
20
98.522210
11
141.022470
21
98.880560
0
LINE
8
Layer 1
10
141.022470
20
98.880560
11
141.058270
21
99.035840
0
LINE
8
Layer 1
10
141.058270
20
99.035840
11
140.783530
21
99.167240
0
LINE
8
Layer 1
10
140.783530
20
99.167240
11
140.520740
21
99.370300
0
LINE
8
Layer 1
10
140.520740
20
99.370300
11
140.341570
21
99.573370
0
LINE
8
Layer 1
10
140.341570
20
99.573370
11
140.150450
21
99.895880
0
LINE
8
Layer 1
10
140.150450
20
99.895880
11
139.947380
21
100.266180
0
LINE
8
Layer 1
10
139.947380
20
100.266180
11
139.887680
21
100.708140
0
LINE
8
Layer 1
10
139.887680
20
100.708140
11
139.827980
21
100.970930
0
LINE
8
Layer 1
10
139.827980
20
100.970930
11
139.827980
21
101.436790
0
LINE
8
Layer 1
10
139.827980
20
101.436790
11
139.935490
21
101.866800
0
LINE
8
Layer 1
10
139.935490
20
101.866800
11
140.162440
21
102.201260
0
LINE
8
Layer 1
10
140.162440
20
102.201260
11
140.759690
21
102.882130
0
LINE
8
Layer 1
10
140.759690
20
102.882130
11
140.950810
21
102.989630
0
LINE
8
Layer 1
10
140.950810
20
102.989630
11
141.345000
21
103.228530
0
LINE
8
Layer 1
10
141.345000
20
103.228530
11
141.954190
21
103.431600
0
LINE
8
Layer 1
10
141.954190
20
103.431600
11
142.503660
21
103.491300
0
LINE
8
Layer 1
10
142.503660
20
103.491300
11
143.077020
21
103.395700
0
LINE
8
Layer 1
10
143.077020
20
103.395700
11
143.614540
21
103.144860
0
LINE
8
Layer 1
10
143.614540
20
103.144860
11
144.032620
21
102.750670
0
LINE
8
Layer 1
10
144.032620
20
102.750670
11
144.343190
21
102.284820
0
LINE
8
Layer 1
10
144.343190
20
102.284820
11
144.641810
21
101.687570
0
LINE
8
Layer 1
10
144.641810
20
101.687570
11
144.797100
21
101.018650
0
LINE
8
Layer 1
10
144.797100
20
101.018650
11
144.856800
21
100.516960
0
LINE
8
Layer 1
10
144.856800
20
100.516960
11
144.677630
21
99.919710
0
LINE
8
Layer 1
10
144.677630
20
99.919710
11
144.498450
21
99.573310
0
LINE
8
Layer 1
10
144.498450
20
99.573310
11
144.223720
21
99.310520
0
LINE
8
Layer 1
10
144.223720
20
99.310520
11
143.877310
21
98.964110
0
LINE
8
Layer 1
10
143.877310
20
98.964110
11
143.602580
21
98.808830
0
LINE
8
Layer 1
10
143.602580
20
98.808830
11
143.423400
21
98.761030
0
LINE
8
Layer 1
10
143.423400
20
98.761030
11
144.104270
21
98.008500
0
LINE
8
Layer 1
10
144.104270
20
98.008500
11
147.198020
21
97.960700
0
LINE
8
Layer 1
10
147.198020
20
97.960700
11
150.494830
21
97.793470
0
LINE
8
Layer 1
10
150.494830
20
97.793470
11
150.900960
21
97.865170
0
LINE
8
Layer 1
10
150.900960
20
97.865170
11
151.235420
21
98.032400
0
LINE
8
Layer 1
10
151.235420
20
98.032400
11
151.390710
21
98.366860
0
LINE
8
Layer 1
10
151.390710
20
98.366860
11
151.653500
21
102.571490
0
LINE
8
Layer 1
10
151.653500
20
102.571490
11
151.402650
21
102.894000
0
LINE
8
Layer 1
10
151.402650
20
102.894000
11
150.100650
21
103.706260
0
LINE
8
Layer 1
10
150.100650
20
103.706260
11
149.431730
21
104.052670
0
LINE
8
Layer 1
10
149.431730
20
104.052670
11
149.288390
21
104.016870
0
LINE
8
Layer 1
10
149.288390
20
104.016870
11
149.073380
21
103.825750
0
LINE
8
Layer 1
10
149.073380
20
103.825750
11
148.523910
21
103.443510
0
LINE
8
Layer 1
10
148.523910
20
103.443510
11
148.010280
21
103.252390
0
LINE
8
Layer 1
10
148.010280
20
103.252390
11
147.198020
21
103.264390
0
LINE
8
Layer 1
10
147.198020
20
103.264390
11
146.564930
21
103.467450
0
LINE
8
Layer 1
10
146.564930
20
103.467450
11
146.051300
21
103.813860
0
LINE
8
Layer 1
10
146.051300
20
103.813860
11
145.692950
21
104.315550
0
LINE
8
Layer 1
10
145.692950
20
104.315550
11
145.466000
21
104.960570
0
LINE
8
Layer 1
10
145.466000
20
104.960570
11
145.358490
21
105.426430
0
LINE
8
Layer 1
10
145.358490
20
105.426430
11
145.430190
21
106.035620
0
LINE
8
Layer 1
10
145.430190
20
106.035620
11
145.609370
21
106.489530
0
LINE
8
Layer 1
10
145.609370
20
106.489530
11
145.896040
21
106.895660
0
LINE
8
Layer 1
10
145.896040
20
106.895660
11
146.529130
21
107.277900
0
LINE
8
Layer 1
10
146.529130
20
107.277900
11
147.245830
21
107.588470
0
LINE
8
Layer 1
10
147.245830
20
107.588470
11
147.795300
21
107.636270
0
LINE
8
Layer 1
10
147.795300
20
107.636270
11
148.285040
21
107.528770
0
LINE
8
Layer 1
10
148.285040
20
107.528770
11
148.930070
21
107.086800
0
LINE
8
Layer 1
10
148.930070
20
107.086800
11
149.288420
21
106.752340
0
LINE
8
Layer 1
10
149.288420
20
106.752340
11
149.479540
21
106.477610
0
LINE
8
Layer 1
10
149.479540
20
106.477610
11
149.658710
21
106.489510
0
LINE
8
Layer 1
10
149.658710
20
106.489510
11
150.148460
21
106.728410
0
LINE
8
Layer 1
10
150.148460
20
106.728410
11
151.008500
21
107.158430
0
LINE
8
Layer 1
10
151.008500
20
107.158430
11
151.844640
21
107.612340
0
LINE
8
Layer 1
10
151.844640
20
107.612340
11
151.999930
21
107.946800
0
LINE
8
Layer 1
10
151.999930
20
107.946800
11
152.047730
21
108.997960
0
LINE
8
Layer 1
10
152.047730
20
108.997960
11
152.334410
21
114.337360
0
LINE
8
Layer 1
10
152.334410
20
114.337360
11
152.692760
21
120.357640
0
LINE
8
Layer 1
10
152.692760
20
120.357640
11
153.051110
21
126.521250
0
LINE
8
Layer 1
10
153.051110
20
126.521250
11
153.457240
21
133.449330
0
LINE
8
Layer 1
10
153.457240
20
133.449330
11
153.779750
21
139.326260
0
LINE
8
Layer 1
10
153.779750
20
139.326260
11
154.102270
21
146.146850
0
LINE
8
Layer 1
10
154.102270
20
146.146850
11
154.257550
21
148.547790
0
LINE
8
Layer 1
10
154.257550
20
148.547790
11
154.209750
21
148.798630
0
LINE
8
Layer 1
10
154.209750
20
148.798630
11
153.935020
21
149.061420
0
LINE
8
Layer 1
10
153.935020
20
149.061420
11
153.325820
21
149.646730
0
LINE
8
Layer 1
10
153.325820
20
149.646730
11
152.859970
21
150.148420
0
LINE
8
Layer 1
10
152.859970
20
150.148420
11
152.740520
21
150.411210
0
LINE
8
Layer 1
10
152.740520
20
150.411210
11
152.895800
21
152.238790
0
LINE
8
Layer 1
10
152.895800
20
152.238790
11
153.098870
21
152.238790
0
LINE
8
Layer 1
10
153.098870
20
152.238790
11
153.552780
21
152.155190
0
LINE
8
Layer 1
10
153.552780
20
152.155190
11
153.516980
21
151.808790
0
LINE
8
Layer 1
10
153.516980
20
151.808790
11
153.779770
21
151.474330
0
LINE
8
Layer 1
10
153.779770
20
151.474330
11
154.245630
21
151.175710
0
LINE
8
Layer 1
10
154.245630
20
151.175710
11
154.424800
21
151.211510
0
LINE
8
Layer 1
10
154.424800
20
151.211510
11
154.711480
21
156.479250
0
LINE
8
Layer 1
10
154.711480
20
156.479250
11
155.057880
21
163.275940
0
LINE
8
Layer 1
10
155.057880
20
163.275940
11
155.571520
21
172.664700
0
LINE
8
Layer 1
10
155.571520
20
172.664700
11
155.655120
21
174.253380
0
LINE
8
Layer 1
10
155.655120
20
174.253380
11
153.039170
21
174.611730
0
LINE
8
Layer 1
10
153.039170
20
174.611730
11
152.860000
21
174.516130
0
LINE
8
Layer 1
10
152.860000
20
174.516130
11
152.644990
21
174.038330
0
LINE
8
Layer 1
10
152.644990
20
174.038330
11
152.860000
21
173.847210
0
LINE
8
Layer 1
10
152.860000
20
173.847210
11
153.194460
21
173.488860
0
LINE
8
Layer 1
10
153.194460
20
173.488860
11
153.469190
21
172.784110
0
LINE
8
Layer 1
10
153.469190
20
172.784110
11
153.499090
21
172.503400
0
LINE
8
Layer 1
10
153.499090
20
172.503400
11
153.510990
21
172.103240
0
LINE
8
Layer 1
10
153.510990
20
172.103240
11
153.457190
21
171.750860
0
LINE
8
Layer 1
10
153.457190
20
171.750860
11
153.349680
21
171.422380
0
LINE
8
Layer 1
10
153.349680
20
171.422380
11
153.206340
21
171.105840
0
LINE
8
Layer 1
10
153.206340
20
171.105840
11
153.003280
21
170.783320
0
LINE
8
Layer 1
10
153.003280
20
170.783320
11
152.573260
21
170.478720
0
LINE
8
Layer 1
10
152.573260
20
170.478720
11
152.226850
21
170.251770
0
LINE
8
Layer 1
10
152.226850
20
170.251770
11
151.832670
21
170.132320
0
LINE
8
Layer 1
10
151.832670
20
170.132320
11
151.408620
21
170.060620
0
LINE
8
Layer 1
10
151.408620
20
170.060620
11
150.996520
21
170.102420
0
LINE
8
Layer 1
10
150.996520
20
170.102420
11
150.548580
21
170.281590
0
LINE
8
Layer 1
10
150.548580
20
170.281590
11
150.130510
21
170.526460
0
LINE
8
Layer 1
10
150.130510
20
170.526460
11
149.724380
21
170.866900
0
LINE
8
Layer 1
10
149.724380
20
170.866900
11
149.372000
21
171.470120
0
LINE
8
Layer 1
10
149.372000
20
171.470120
11
149.198800
21
172.162930
0
LINE
8
Layer 1
10
149.198800
20
172.162930
11
149.246600
21
172.784070
0
LINE
8
Layer 1
10
149.246600
20
172.784070
11
149.431750
21
173.351450
0
LINE
8
Layer 1
10
149.431750
20
173.351450
11
149.909550
21
173.918840
0
LINE
8
Layer 1
10
149.909550
20
173.918840
11
150.232060
21
174.098010
0
LINE
8
Layer 1
10
150.232060
20
174.098010
11
150.327660
21
174.336910
0
LINE
8
Layer 1
10
150.327660
20
174.336910
11
150.208210
21
174.611650
0
LINE
8
Layer 1
10
150.208210
20
174.611650
11
150.058900
21
174.868460
0
LINE
8
Layer 1
10
150.058900
20
174.868460
11
147.867000
21
175.005830
 0 
ENDSEC
 0 
EOF