%TF.GenerationSoftware,KiCad,Pcbnew,9.0.0*%
%TF.CreationDate,2025-04-04T02:17:59+01:00*%
%TF.ProjectId,Analogue Board,416e616c-6f67-4756-9520-426f6172642e,rev?*%
%TF.SameCoordinates,Original*%
%TF.FileFunction,Soldermask,Top*%
%TF.FilePolarity,Negative*%
%FSLAX46Y46*%
G04 Gerber Fmt 4.6, Leading zero omitted, Abs format (unit mm)*
G04 Created by KiCad (PCBNEW 9.0.0) date 2025-04-04 02:17:59*
%MOMM*%
%LPD*%
G01*
G04 APERTURE LIST*
G04 Aperture macros list*
%AMRoundRect*
0 Rectangle with rounded corners*
0 $1 Rounding radius*
0 $2 $3 $4 $5 $6 $7 $8 $9 X,Y pos of 4 corners*
0 Add a 4 corners polygon primitive as box body*
4,1,4,$2,$3,$4,$5,$6,$7,$8,$9,$2,$3,0*
0 Add four circle primitives for the rounded corners*
1,1,$1+$1,$2,$3*
1,1,$1+$1,$4,$5*
1,1,$1+$1,$6,$7*
1,1,$1+$1,$8,$9*
0 Add four rect primitives between the rounded corners*
20,1,$1+$1,$2,$3,$4,$5,0*
20,1,$1+$1,$4,$5,$6,$7,0*
20,1,$1+$1,$6,$7,$8,$9,0*
20,1,$1+$1,$8,$9,$2,$3,0*%
G04 Aperture macros list end*
%ADD10C,3.200000*%
%ADD11O,1.700000X1.700000*%
%ADD12R,1.700000X1.700000*%
%ADD13C,1.600000*%
%ADD14O,1.600000X1.600000*%
%ADD15RoundRect,0.250000X-0.350000X-0.450000X0.350000X-0.450000X0.350000X0.450000X-0.350000X0.450000X0*%
%ADD16RoundRect,0.237500X0.237500X-0.250000X0.237500X0.250000X-0.237500X0.250000X-0.237500X-0.250000X0*%
%ADD17RoundRect,0.250000X0.600000X0.750000X-0.600000X0.750000X-0.600000X-0.750000X0.600000X-0.750000X0*%
%ADD18O,1.700000X2.000000*%
%ADD19RoundRect,0.237500X0.237500X-0.300000X0.237500X0.300000X-0.237500X0.300000X-0.237500X-0.300000X0*%
%ADD20R,1.500000X1.500000*%
%ADD21RoundRect,0.237500X-0.250000X-0.237500X0.250000X-0.237500X0.250000X0.237500X-0.250000X0.237500X0*%
%ADD22RoundRect,0.250000X-0.550000X-0.550000X0.550000X-0.550000X0.550000X0.550000X-0.550000X0.550000X0*%
%ADD23RoundRect,0.160000X-0.160000X0.197500X-0.160000X-0.197500X0.160000X-0.197500X0.160000X0.197500X0*%
%ADD24RoundRect,0.100000X-0.217500X-0.100000X0.217500X-0.100000X0.217500X0.100000X-0.217500X0.100000X0*%
%ADD25RoundRect,0.160000X-0.197500X-0.160000X0.197500X-0.160000X0.197500X0.160000X-0.197500X0.160000X0*%
%ADD26RoundRect,0.250000X0.725000X-0.600000X0.725000X0.600000X-0.725000X0.600000X-0.725000X-0.600000X0*%
%ADD27O,1.950000X1.700000*%
%ADD28RoundRect,0.250000X-0.450000X0.350000X-0.450000X-0.350000X0.450000X-0.350000X0.450000X0.350000X0*%
%ADD29RoundRect,0.237500X-0.237500X0.250000X-0.237500X-0.250000X0.237500X-0.250000X0.237500X0.250000X0*%
%ADD30RoundRect,0.100000X0.100000X-0.217500X0.100000X0.217500X-0.100000X0.217500X-0.100000X-0.217500X0*%
%ADD31RoundRect,0.225000X0.375000X-0.225000X0.375000X0.225000X-0.375000X0.225000X-0.375000X-0.225000X0*%
%ADD32R,3.000000X3.000000*%
%ADD33C,3.000000*%
%ADD34RoundRect,0.237500X0.250000X0.237500X-0.250000X0.237500X-0.250000X-0.237500X0.250000X-0.237500X0*%
%ADD35RoundRect,0.150000X0.825000X0.150000X-0.825000X0.150000X-0.825000X-0.150000X0.825000X-0.150000X0*%
%ADD36RoundRect,0.150000X-0.150000X0.512500X-0.150000X-0.512500X0.150000X-0.512500X0.150000X0.512500X0*%
%ADD37RoundRect,0.250000X-0.600000X-0.750000X0.600000X-0.750000X0.600000X0.750000X-0.600000X0.750000X0*%
%ADD38RoundRect,0.249999X1.075001X-0.450001X1.075001X0.450001X-1.075001X0.450001X-1.075001X-0.450001X0*%
%ADD39RoundRect,0.237500X-0.237500X0.300000X-0.237500X-0.300000X0.237500X-0.300000X0.237500X0.300000X0*%
%ADD40RoundRect,0.237500X-0.237500X0.287500X-0.237500X-0.287500X0.237500X-0.287500X0.237500X0.287500X0*%
%ADD41RoundRect,0.155000X-0.155000X0.212500X-0.155000X-0.212500X0.155000X-0.212500X0.155000X0.212500X0*%
%ADD42RoundRect,0.100000X-0.100000X0.217500X-0.100000X-0.217500X0.100000X-0.217500X0.100000X0.217500X0*%
%ADD43RoundRect,0.250000X-0.725000X0.600000X-0.725000X-0.600000X0.725000X-0.600000X0.725000X0.600000X0*%
%ADD44R,2.000000X1.905000*%
%ADD45O,2.000000X1.905000*%
%ADD46RoundRect,0.250000X0.450000X-0.350000X0.450000X0.350000X-0.450000X0.350000X-0.450000X-0.350000X0*%
%ADD47RoundRect,0.250000X-0.600000X-0.725000X0.600000X-0.725000X0.600000X0.725000X-0.600000X0.725000X0*%
%ADD48O,1.700000X1.950000*%
%ADD49RoundRect,0.225000X0.225000X0.375000X-0.225000X0.375000X-0.225000X-0.375000X0.225000X-0.375000X0*%
%ADD50RoundRect,0.237500X0.300000X0.237500X-0.300000X0.237500X-0.300000X-0.237500X0.300000X-0.237500X0*%
%ADD51RoundRect,0.225000X-0.225000X-0.375000X0.225000X-0.375000X0.225000X0.375000X-0.225000X0.375000X0*%
G04 APERTURE END LIST*
D10*
%TO.C,H2*%
X160400000Y-71600000D03*
%TD*%
D11*
%TO.C,J3*%
X140080000Y-108500000D03*
X140080000Y-111040000D03*
X137540000Y-108500000D03*
X137540000Y-111040000D03*
X135000000Y-108500000D03*
X135000000Y-111040000D03*
X132460000Y-108500000D03*
X132460000Y-111040000D03*
X129920000Y-108500000D03*
X129920000Y-111040000D03*
X127380000Y-108500000D03*
X127380000Y-111040000D03*
X124840000Y-108500000D03*
X124840000Y-111040000D03*
X122300000Y-108500000D03*
D12*
X122300000Y-111040000D03*
%TD*%
D13*
%TO.C,R14*%
X116440000Y-78000000D03*
D14*
X124060000Y-78000000D03*
%TD*%
D13*
%TO.C,R13*%
X127750000Y-77690000D03*
D14*
X127750000Y-85310000D03*
%TD*%
D15*
%TO.C,R34*%
X121750000Y-118750000D03*
X123750000Y-118750000D03*
%TD*%
D16*
%TO.C,R43*%
X97800000Y-110912500D03*
X97800000Y-109087500D03*
%TD*%
D17*
%TO.C,TH13*%
X125750000Y-141500000D03*
D18*
X123250000Y-141500000D03*
%TD*%
D19*
%TO.C,C12*%
X110750000Y-100362500D03*
X110750000Y-98637500D03*
%TD*%
D20*
%TO.C,VCCS_EN1*%
X143000000Y-97000000D03*
%TD*%
%TO.C,W_HV1*%
X155000000Y-104750000D03*
%TD*%
D21*
%TO.C,R37*%
X115750000Y-97250000D03*
X117575000Y-97250000D03*
%TD*%
D20*
%TO.C,+8V1*%
X109500000Y-73775000D03*
%TD*%
D22*
%TO.C,U3*%
X99880000Y-123720000D03*
D13*
X99880000Y-126260000D03*
X99880000Y-128800000D03*
X99880000Y-131340000D03*
X99880000Y-133880000D03*
X99880000Y-136420000D03*
X99880000Y-138960000D03*
X99880000Y-141500000D03*
X107500000Y-141500000D03*
X107500000Y-138960000D03*
X107500000Y-136420000D03*
X107500000Y-133880000D03*
X107500000Y-131340000D03*
X107500000Y-128800000D03*
X107500000Y-126260000D03*
X107500000Y-123720000D03*
%TD*%
D15*
%TO.C,R31*%
X147250000Y-118750000D03*
X149250000Y-118750000D03*
%TD*%
D21*
%TO.C,R40*%
X141333900Y-86718800D03*
X143158900Y-86718800D03*
%TD*%
%TO.C,R20*%
X90887500Y-141200000D03*
X92712500Y-141200000D03*
%TD*%
D17*
%TO.C,TH1*%
X125750000Y-125000000D03*
D18*
X123250000Y-125000000D03*
%TD*%
D23*
%TO.C,R8*%
X142246400Y-90018800D03*
X142246400Y-91213800D03*
%TD*%
D24*
%TO.C,C18*%
X142738900Y-85218800D03*
X143553900Y-85218800D03*
%TD*%
D17*
%TO.C,TH0*%
X117250000Y-125000000D03*
D18*
X114750000Y-125000000D03*
%TD*%
D25*
%TO.C,R1*%
X116105000Y-83400000D03*
X117300000Y-83400000D03*
%TD*%
D26*
%TO.C,MUX1*%
X93000000Y-124860000D03*
D27*
X93000000Y-122360000D03*
X93000000Y-119860000D03*
X93000000Y-117360000D03*
X93000000Y-114860000D03*
X93000000Y-112360000D03*
%TD*%
D28*
%TO.C,R5*%
X111787500Y-89950000D03*
X111787500Y-91950000D03*
%TD*%
D17*
%TO.C,TH4*%
X151250000Y-125000000D03*
D18*
X148750000Y-125000000D03*
%TD*%
D13*
%TO.C,C11*%
X120400000Y-101800000D03*
X117900000Y-101800000D03*
%TD*%
D21*
%TO.C,R44*%
X96087500Y-129110000D03*
X97912500Y-129110000D03*
%TD*%
D29*
%TO.C,R15*%
X124800000Y-90487500D03*
X124800000Y-92312500D03*
%TD*%
D30*
%TO.C,C2*%
X111037500Y-94500000D03*
X111037500Y-93685000D03*
%TD*%
D23*
%TO.C,R11*%
X141046400Y-91221300D03*
X141046400Y-92416300D03*
%TD*%
D31*
%TO.C,D3*%
X145900000Y-73862500D03*
X145900000Y-70562500D03*
%TD*%
D16*
%TO.C,R6*%
X113787500Y-89362500D03*
X113787500Y-87537500D03*
%TD*%
D32*
%TO.C,HV_IN1*%
X118460000Y-71750000D03*
D33*
X123540000Y-71750000D03*
%TD*%
D16*
%TO.C,R49*%
X149510000Y-93937500D03*
X149510000Y-92112500D03*
%TD*%
D34*
%TO.C,R38*%
X145958900Y-83918800D03*
X144133900Y-83918800D03*
%TD*%
D35*
%TO.C,U6*%
X139196400Y-92038800D03*
X139196400Y-90768800D03*
X139196400Y-89498800D03*
X139196400Y-88228800D03*
X139196400Y-86958800D03*
X139196400Y-85688800D03*
X139196400Y-84418800D03*
X134246400Y-84418800D03*
X134246400Y-85688800D03*
X134246400Y-86958800D03*
X134246400Y-88228800D03*
X134246400Y-89498800D03*
X134246400Y-90768800D03*
X134246400Y-92038800D03*
%TD*%
D20*
%TO.C,V_SO1*%
X105000000Y-79250000D03*
%TD*%
D13*
%TO.C,C23*%
X127650000Y-102000000D03*
X125150000Y-102000000D03*
%TD*%
D15*
%TO.C,R22*%
X121750000Y-114250000D03*
X123750000Y-114250000D03*
%TD*%
D13*
%TO.C,C14*%
X100500000Y-118250000D03*
X103000000Y-118250000D03*
%TD*%
D30*
%TO.C,C19*%
X142846400Y-83926300D03*
X142846400Y-83111300D03*
%TD*%
D17*
%TO.C,TH11*%
X142750000Y-141500000D03*
D18*
X140250000Y-141500000D03*
%TD*%
D13*
%TO.C,C13*%
X114800000Y-109400000D03*
X112300000Y-109400000D03*
%TD*%
D34*
%TO.C,R39*%
X145958900Y-82318800D03*
X144133900Y-82318800D03*
%TD*%
D36*
%TO.C,U4*%
X131350000Y-95300000D03*
X130400000Y-95300000D03*
X129450000Y-95300000D03*
X129450000Y-97575000D03*
X130400000Y-97575000D03*
X131350000Y-97575000D03*
%TD*%
D15*
%TO.C,R30*%
X147250000Y-116500000D03*
X149250000Y-116500000D03*
%TD*%
D29*
%TO.C,R46*%
X131820000Y-85161900D03*
X131820000Y-86986900D03*
%TD*%
D17*
%TO.C,TH8*%
X142750000Y-133250000D03*
D18*
X140250000Y-133250000D03*
%TD*%
D17*
%TO.C,TH7*%
X134250000Y-133275000D03*
D18*
X131750000Y-133275000D03*
%TD*%
D34*
%TO.C,R9*%
X144358900Y-88418800D03*
X142533900Y-88418800D03*
%TD*%
D37*
%TO.C,8V_IN1*%
X102250000Y-73250000D03*
D18*
X104750000Y-73250000D03*
%TD*%
D23*
%TO.C,R45*%
X130042000Y-85883300D03*
X130042000Y-87078300D03*
%TD*%
D15*
%TO.C,R21*%
X113250000Y-114250000D03*
X115250000Y-114250000D03*
%TD*%
%TO.C,R29*%
X138750000Y-116500000D03*
X140750000Y-116500000D03*
%TD*%
D38*
%TO.C,R3*%
X106800000Y-90500000D03*
X106800000Y-85700000D03*
%TD*%
D39*
%TO.C,C15*%
X107000000Y-119000000D03*
X107000000Y-120725000D03*
%TD*%
D19*
%TO.C,C6*%
X148500000Y-73900000D03*
X148500000Y-72175000D03*
%TD*%
D16*
%TO.C,R12*%
X148500000Y-77812500D03*
X148500000Y-75987500D03*
%TD*%
D19*
%TO.C,C20*%
X143100000Y-72000000D03*
X143100000Y-70275000D03*
%TD*%
D15*
%TO.C,R27*%
X121750000Y-116500000D03*
X123750000Y-116500000D03*
%TD*%
D40*
%TO.C,8V_OK1*%
X146510000Y-99625000D03*
X146510000Y-101375000D03*
%TD*%
D20*
%TO.C,MU_B1*%
X110300000Y-134000000D03*
%TD*%
D39*
%TO.C,C22*%
X157446400Y-85856300D03*
X157446400Y-87581300D03*
%TD*%
D20*
%TO.C,I_SOF1*%
X161290000Y-104775000D03*
%TD*%
D15*
%TO.C,R35*%
X113250000Y-118750000D03*
X115250000Y-118750000D03*
%TD*%
%TO.C,R25*%
X147250000Y-114250000D03*
X149250000Y-114250000D03*
%TD*%
D21*
%TO.C,R18*%
X90975000Y-129000000D03*
X92800000Y-129000000D03*
%TD*%
D15*
%TO.C,R26*%
X113250000Y-116500000D03*
X115250000Y-116500000D03*
%TD*%
D36*
%TO.C,U7*%
X151246400Y-85518800D03*
X150296400Y-85518800D03*
X149346400Y-85518800D03*
X149346400Y-87793800D03*
X150296400Y-87793800D03*
X151246400Y-87793800D03*
%TD*%
D15*
%TO.C,R23*%
X130250000Y-114250000D03*
X132250000Y-114250000D03*
%TD*%
D40*
%TO.C,5V_OK1*%
X149400000Y-103950000D03*
X149400000Y-105700000D03*
%TD*%
D15*
%TO.C,R28*%
X130250000Y-116500000D03*
X132250000Y-116500000D03*
%TD*%
D21*
%TO.C,R19*%
X90987500Y-130800000D03*
X92812500Y-130800000D03*
%TD*%
D17*
%TO.C,TH12*%
X134250000Y-141500000D03*
D18*
X131750000Y-141500000D03*
%TD*%
D36*
%TO.C,U8*%
X155496400Y-85581300D03*
X154546400Y-85581300D03*
X153596400Y-85581300D03*
X153596400Y-87856300D03*
X154546400Y-87856300D03*
X155496400Y-87856300D03*
%TD*%
D41*
%TO.C,C8*%
X124600000Y-93800000D03*
X124600000Y-94935000D03*
%TD*%
D17*
%TO.C,TH3*%
X142750000Y-125000000D03*
D18*
X140250000Y-125000000D03*
%TD*%
D31*
%TO.C,D4*%
X140500000Y-77400000D03*
X140500000Y-74100000D03*
%TD*%
D42*
%TO.C,C5*%
X143446400Y-90211300D03*
X143446400Y-91026300D03*
%TD*%
D17*
%TO.C,TH6*%
X125750000Y-133275000D03*
D18*
X123250000Y-133275000D03*
%TD*%
D43*
%TO.C,I_SENSE_OUT1*%
X162400000Y-78300000D03*
D27*
X162400000Y-80800000D03*
X162400000Y-83300000D03*
X162400000Y-85800000D03*
%TD*%
D29*
%TO.C,R16*%
X123200000Y-91687500D03*
X123200000Y-93512500D03*
%TD*%
D16*
%TO.C,R42*%
X143100000Y-75912500D03*
X143100000Y-74087500D03*
%TD*%
D22*
%TO.C,U2*%
X99880000Y-94910000D03*
D13*
X99880000Y-97450000D03*
X99880000Y-99990000D03*
X99880000Y-102530000D03*
X99880000Y-105070000D03*
X99880000Y-107610000D03*
X99880000Y-110150000D03*
X99880000Y-112690000D03*
X107500000Y-112690000D03*
X107500000Y-110150000D03*
X107500000Y-107610000D03*
X107500000Y-105070000D03*
X107500000Y-102530000D03*
X107500000Y-99990000D03*
X107500000Y-97450000D03*
X107500000Y-94910000D03*
%TD*%
D44*
%TO.C,Q1*%
X158250000Y-131420000D03*
D45*
X158250000Y-133960000D03*
X158250000Y-136500000D03*
%TD*%
D43*
%TO.C,I_SENSE_IN1*%
X162400000Y-92200000D03*
D27*
X162400000Y-94700000D03*
X162400000Y-97200000D03*
X162400000Y-99700000D03*
%TD*%
D35*
%TO.C,U1*%
X121037500Y-92700000D03*
X121037500Y-91430000D03*
X121037500Y-90160000D03*
X121037500Y-88890000D03*
X121037500Y-87620000D03*
X121037500Y-86350000D03*
X121037500Y-85080000D03*
X116087500Y-85080000D03*
X116087500Y-86350000D03*
X116087500Y-87620000D03*
X116087500Y-88890000D03*
X116087500Y-90160000D03*
X116087500Y-91430000D03*
X116087500Y-92700000D03*
%TD*%
D16*
%TO.C,R41*%
X141346400Y-84943800D03*
X141346400Y-83118800D03*
%TD*%
D46*
%TO.C,TH15*%
X159195000Y-126750000D03*
X159195000Y-124750000D03*
%TD*%
D39*
%TO.C,C9*%
X103000000Y-88275000D03*
X103000000Y-90000000D03*
%TD*%
D10*
%TO.C,H1*%
X93400000Y-105600000D03*
%TD*%
D47*
%TO.C,VCCS_IN2*%
X133400000Y-102200000D03*
D48*
X135900000Y-102200000D03*
X138400000Y-102200000D03*
X140900000Y-102200000D03*
%TD*%
D16*
%TO.C,R48*%
X131820000Y-90541000D03*
X131820000Y-88716000D03*
%TD*%
%TO.C,R17*%
X101150000Y-90050000D03*
X101150000Y-88225000D03*
%TD*%
D20*
%TO.C,VCCS_S1*%
X102000000Y-79250000D03*
%TD*%
D15*
%TO.C,R24*%
X138750000Y-114250000D03*
X140750000Y-114250000D03*
%TD*%
D16*
%TO.C,R4*%
X111687500Y-88112500D03*
X111687500Y-86287500D03*
%TD*%
D39*
%TO.C,C17*%
X127600000Y-95500000D03*
X127600000Y-97225000D03*
%TD*%
D17*
%TO.C,TH14*%
X117250000Y-141485000D03*
D18*
X114750000Y-141485000D03*
%TD*%
D17*
%TO.C,TH5*%
X117250000Y-133250000D03*
D18*
X114750000Y-133250000D03*
%TD*%
D30*
%TO.C,C3*%
X104600000Y-88507500D03*
X104600000Y-87692500D03*
%TD*%
D20*
%TO.C,MU_A1*%
X110200000Y-126400000D03*
%TD*%
D49*
%TO.C,D5*%
X96603842Y-86378212D03*
X93303842Y-86378212D03*
%TD*%
D50*
%TO.C,C10*%
X119462500Y-94400000D03*
X117737500Y-94400000D03*
%TD*%
D20*
%TO.C,+5V1*%
X161750000Y-111250000D03*
%TD*%
D16*
%TO.C,R51*%
X149450000Y-101912500D03*
X149450000Y-100087500D03*
%TD*%
D15*
%TO.C,R32*%
X138750000Y-118750000D03*
X140750000Y-118750000D03*
%TD*%
D32*
%TO.C,VCCS_OUT1*%
X94000000Y-82080000D03*
D33*
X94000000Y-77000000D03*
%TD*%
D29*
%TO.C,R47*%
X129991200Y-88717900D03*
X129991200Y-90542900D03*
%TD*%
D17*
%TO.C,TH2*%
X134250000Y-125000000D03*
D18*
X131750000Y-125000000D03*
%TD*%
D10*
%TO.C,H4*%
X93400000Y-135600000D03*
%TD*%
D46*
%TO.C,R7*%
X113787500Y-93350000D03*
X113787500Y-91350000D03*
%TD*%
D40*
%TO.C,HV1*%
X149500000Y-96000000D03*
X149500000Y-97750000D03*
%TD*%
D20*
%TO.C,MU_OB1*%
X96200000Y-142600000D03*
%TD*%
D16*
%TO.C,R10*%
X142446400Y-94731300D03*
X142446400Y-92906300D03*
%TD*%
D17*
%TO.C,TH9*%
X151250000Y-133275000D03*
D18*
X148750000Y-133275000D03*
%TD*%
D15*
%TO.C,R36*%
X147250000Y-112000000D03*
X149250000Y-112000000D03*
%TD*%
D31*
%TO.C,D6*%
X145900000Y-79262500D03*
X145900000Y-75962500D03*
%TD*%
D32*
%TO.C,5V_IN1*%
X159750000Y-115420000D03*
D33*
X159750000Y-120500000D03*
%TD*%
D16*
%TO.C,R50*%
X146500000Y-97575000D03*
X146500000Y-95750000D03*
%TD*%
D10*
%TO.C,H3*%
X160400000Y-143000000D03*
%TD*%
D20*
%TO.C,I_SO1*%
X158115000Y-104775000D03*
%TD*%
D16*
%TO.C,R2*%
X113787500Y-85775000D03*
X113787500Y-83950000D03*
%TD*%
D17*
%TO.C,TH10*%
X151250000Y-141525000D03*
D18*
X148750000Y-141525000D03*
%TD*%
D26*
%TO.C,V_SENSE_OUT1*%
X93003842Y-98778212D03*
D27*
X93003842Y-96278212D03*
X93003842Y-93778212D03*
%TD*%
D41*
%TO.C,C7*%
X126200000Y-92665000D03*
X126200000Y-93800000D03*
%TD*%
D30*
%TO.C,C1*%
X112037500Y-94507500D03*
X112037500Y-93692500D03*
%TD*%
D20*
%TO.C,MU_OA1*%
X96200000Y-140000000D03*
%TD*%
D50*
%TO.C,C24*%
X137608900Y-93718800D03*
X135883900Y-93718800D03*
%TD*%
D15*
%TO.C,R33*%
X130250000Y-118750000D03*
X132250000Y-118750000D03*
%TD*%
D31*
%TO.C,D1*%
X140500000Y-72000000D03*
X140500000Y-68700000D03*
%TD*%
D30*
%TO.C,C4*%
X141046400Y-94426300D03*
X141046400Y-93611300D03*
%TD*%
D20*
%TO.C,MU_C1*%
X110300000Y-141500000D03*
%TD*%
%TO.C,VCCS_IN1*%
X146000000Y-104825000D03*
%TD*%
D51*
%TO.C,D2*%
X93300000Y-89000000D03*
X96600000Y-89000000D03*
%TD*%
D39*
%TO.C,C21*%
X147446400Y-85793800D03*
X147446400Y-87518800D03*
%TD*%
D20*
%TO.C,I_SE1*%
X132600000Y-77900000D03*
%TD*%
D12*
%TO.C,J2*%
X136493600Y-80232400D03*
D11*
X136493600Y-77692400D03*
X136493600Y-75152400D03*
%TD*%
M02*
