M48
; DRILL file {KiCad 9.0.0} date 2025-04-04T02:18:02+0100
; FORMAT={-:-/ absolute / metric / decimal}
; #@! TF.CreationDate,2025-04-04T02:18:02+01:00
; #@! TF.GenerationSoftware,Kicad,Pcbnew,9.0.0
; #@! TF.FileFunction,Plated,1,2,PTH
FMAT,2
METRIC
; #@! TA.AperFunction,Plated,PTH,ViaDrill
T1C0.300
; #@! TA.AperFunction,Plated,PTH,ComponentDrill
T2C0.800
; #@! TA.AperFunction,Plated,PTH,ComponentDrill
T3C0.950
; #@! TA.AperFunction,Plated,PTH,ComponentDrill
T4C1.000
; #@! TA.AperFunction,Plated,PTH,ComponentDrill
T5C1.100
; #@! TA.AperFunction,Plated,PTH,ComponentDrill
T6C1.520
%
G90
G05
T1
X90.17Y-132.715
X90.805Y-74.295
X90.805Y-75.565
X90.805Y-76.835
X90.805Y-78.105
X90.805Y-79.375
X90.805Y-80.645
X90.805Y-81.915
X90.805Y-83.185
X90.805Y-84.455
X90.805Y-109.855
X90.805Y-139.065
X91.44Y-123.19
X91.44Y-126.365
X92.075Y-74.295
X92.075Y-79.375
X92.075Y-84.455
X92.075Y-139.065
X93.345Y-74.295
X93.345Y-79.375
X93.345Y-84.455
X93.345Y-109.855
X94.615Y-74.295
X94.615Y-84.455
X94.615Y-126.365
X95.885Y-74.295
X95.885Y-75.565
X95.885Y-84.455
X96.087Y-129.11
X96.165Y-130.486
X96.2Y-140.0
X96.2Y-142.6
X97.155Y-74.295
X97.155Y-75.565
X97.155Y-76.835
X97.155Y-83.185
X97.155Y-84.455
X97.228Y-131.094
X97.25Y-130.25
X97.79Y-91.44
X97.79Y-92.71
X97.79Y-93.98
X97.79Y-95.25
X97.79Y-96.52
X97.79Y-97.79
X97.79Y-99.06
X97.79Y-100.33
X97.79Y-101.6
X98.425Y-71.755
X98.425Y-73.025
X98.425Y-74.295
X98.425Y-75.565
X98.425Y-76.835
X98.425Y-78.105
X98.425Y-84.455
X98.425Y-85.725
X99.695Y-78.105
X99.695Y-80.01
X99.695Y-85.725
X101.15Y-134.301
X102.235Y-81.28
X102.235Y-95.25
X102.87Y-82.55
X103.0Y-88.275
X103.499Y-130.5
X103.505Y-95.25
X103.819Y-91.599
X104.401Y-112.401
X104.436Y-89.895
X104.436Y-91.09
X104.645Y-83.055
X104.699Y-135.98
X104.775Y-81.28
X105.15Y-92.799
X105.75Y-95.5
X105.85Y-132.511
X106.625Y-92.625
X107.315Y-80.01
X107.315Y-82.55
X108.585Y-76.2
X108.585Y-80.01
X109.22Y-83.185
X109.5Y-73.775
X109.75Y-137.5
X109.855Y-76.2
X109.855Y-80.01
X109.855Y-90.805
X110.49Y-83.185
X110.49Y-90.17
X110.805Y-105.25
X111.607Y-121.0
X111.76Y-80.01
X111.76Y-83.185
X112.395Y-104.14
X113.665Y-105.41
X113.787Y-83.95
X113.787Y-93.35
X114.3Y-94.615
X114.3Y-106.68
X115.1Y-88.11
X115.57Y-99.695
X115.57Y-128.905
X115.57Y-137.16
X115.57Y-145.415
X115.75Y-97.25
X116.087Y-86.35
X116.087Y-88.89
X116.205Y-128.27
X116.205Y-136.525
X116.205Y-144.78
X116.84Y-95.885
X116.84Y-99.695
X117.475Y-109.855
X117.475Y-111.125
X118.11Y-99.695
X118.25Y-83.75
X118.745Y-95.885
X118.745Y-109.855
X119.38Y-95.885
X119.38Y-99.695
X121.0Y-98.25
X121.037Y-87.62
X121.037Y-90.16
X121.75Y-116.5
X121.75Y-118.75
X122.415Y-90.937
X122.555Y-102.235
X122.555Y-103.505
X123.8Y-90.25
X123.825Y-128.905
X123.825Y-137.16
X123.825Y-145.415
X124.0Y-96.4
X124.46Y-128.27
X124.46Y-144.78
X129.35Y-94.0
X129.75Y-100.0
X130.2Y-92.625
X130.25Y-115.9
X130.25Y-118.75
X130.375Y-94.9
X130.81Y-80.01
X130.925Y-91.95
X131.425Y-92.825
X131.445Y-100.33
X131.445Y-101.6
X131.82Y-88.716
X132.08Y-82.55
X132.1Y-92.225
X132.715Y-80.645
X132.715Y-94.615
X132.715Y-95.885
X132.715Y-100.33
X132.715Y-128.905
X132.715Y-137.16
X132.715Y-145.415
X133.35Y-128.27
X133.35Y-136.525
X133.35Y-144.78
X133.985Y-81.915
X133.985Y-94.615
X133.985Y-95.885
X133.985Y-97.155
X134.246Y-89.499
X134.246Y-92.039
X135.255Y-95.885
X135.255Y-97.155
X136.5Y-88.0
X136.5Y-89.75
X137.0Y-87.0
X137.16Y-98.425
X137.609Y-93.719
X137.795Y-97.79
X138.5Y-99.0
X138.75Y-116.5
X138.75Y-118.75
X140.97Y-128.905
X141.046Y-92.416
X141.605Y-128.27
X141.605Y-145.415
X142.24Y-99.06
X142.24Y-144.78
X142.75Y-80.25
X143.0Y-74.1
X143.1Y-75.912
X143.25Y-86.75
X143.35Y-77.8
X143.51Y-99.06
X144.359Y-88.419
X144.5Y-86.0
X144.78Y-97.79
X144.78Y-99.06
X144.78Y-102.87
X145.0Y-85.25
X145.0Y-89.75
X145.082Y-96.045
X145.5Y-88.25
X145.75Y-89.0
X145.95Y-79.325
X145.959Y-82.319
X146.5Y-89.75
X146.51Y-101.375
X146.685Y-102.87
X147.119Y-109.131
X147.25Y-87.75
X147.25Y-116.5
X147.25Y-118.75
X147.35Y-84.558
X147.955Y-103.505
X147.955Y-104.775
X148.166Y-86.656
X148.555Y-85.957
X149.225Y-128.905
X149.225Y-137.16
X149.4Y-105.7
X149.5Y-89.0
X149.86Y-128.27
X149.86Y-145.415
X150.495Y-144.78
X151.5Y-120.0
X151.765Y-106.68
X151.765Y-107.95
X152.0Y-86.293
X152.5Y-87.75
X152.75Y-91.75
X152.995Y-82.0
X153.035Y-106.68
X153.035Y-107.95
X153.035Y-109.22
X153.5Y-94.25
X154.305Y-91.44
X154.305Y-95.25
X154.305Y-96.52
X154.305Y-97.79
X154.305Y-99.06
X154.305Y-100.33
X154.305Y-106.68
X154.305Y-107.95
X154.305Y-109.22
X154.305Y-110.49
X154.94Y-130.175
X154.94Y-131.445
X154.94Y-136.525
X154.94Y-137.795
X154.94Y-139.065
X154.94Y-140.335
X154.94Y-141.605
X154.94Y-142.875
X155.0Y-92.25
X155.5Y-125.0
X155.575Y-106.68
X155.575Y-107.95
X155.575Y-109.22
X155.575Y-110.49
X155.575Y-126.365
X155.977Y-89.42
X156.21Y-127.635
X156.21Y-131.445
X156.21Y-132.715
X156.21Y-137.795
X156.21Y-139.065
X156.21Y-140.335
X156.21Y-141.605
X156.21Y-142.875
X156.5Y-86.75
X156.845Y-106.68
X156.845Y-107.95
X156.845Y-109.22
X156.845Y-110.49
X156.845Y-111.76
X156.845Y-113.03
X156.845Y-114.3
X156.845Y-115.57
X156.845Y-116.84
X156.845Y-118.11
X156.845Y-119.38
X156.845Y-120.65
X156.845Y-121.92
X156.845Y-123.19
X156.845Y-124.46
X157.48Y-128.27
X157.48Y-139.065
X157.48Y-140.335
X158.115Y-104.775
X158.115Y-106.68
X158.115Y-107.95
X158.115Y-109.22
X158.115Y-110.49
X158.115Y-111.76
X158.115Y-113.03
X158.115Y-118.11
X158.115Y-121.92
X158.115Y-123.19
X158.75Y-128.27
X158.75Y-139.065
X159.385Y-106.68
X159.385Y-107.95
X159.385Y-109.22
X159.385Y-110.49
X159.385Y-111.76
X159.385Y-113.03
X159.385Y-118.11
X159.385Y-123.19
X160.02Y-136.525
X160.02Y-137.795
X160.02Y-139.065
X160.655Y-106.68
X160.655Y-107.95
X160.655Y-109.22
X160.655Y-113.03
X160.655Y-118.11
X161.29Y-104.775
X161.29Y-136.525
X161.29Y-137.795
X161.29Y-139.065
X162.56Y-113.665
X162.56Y-114.935
X162.56Y-116.205
X162.56Y-117.475
X162.56Y-118.745
X162.56Y-120.015
X162.56Y-136.525
X162.56Y-137.795
X162.56Y-139.065
X163.83Y-103.505
X163.83Y-104.775
X163.83Y-106.045
X163.83Y-107.315
X163.83Y-108.585
X163.83Y-109.855
X163.83Y-111.125
X163.83Y-112.395
X163.83Y-113.665
X163.83Y-114.935
X163.83Y-116.205
X163.83Y-117.475
X163.83Y-118.745
X163.83Y-120.015
X163.83Y-121.285
X163.83Y-122.555
X163.83Y-123.825
X163.83Y-125.095
X163.83Y-126.365
X163.83Y-127.635
X163.83Y-128.905
X163.83Y-130.175
X163.83Y-131.445
X163.83Y-132.715
X163.83Y-133.985
X163.83Y-135.255
X163.83Y-136.525
X163.83Y-137.795
X163.83Y-139.065
X165.1Y-103.505
X165.1Y-104.775
X165.1Y-106.045
X165.1Y-107.315
X165.1Y-108.585
X165.1Y-109.855
X165.1Y-111.125
X165.1Y-112.395
X165.1Y-113.665
X165.1Y-114.935
X165.1Y-116.205
X165.1Y-117.475
X165.1Y-118.745
X165.1Y-120.015
X165.1Y-121.285
X165.1Y-122.555
X165.1Y-123.825
X165.1Y-125.095
X165.1Y-126.365
X165.1Y-127.635
X165.1Y-128.905
X165.1Y-130.175
X165.1Y-131.445
X165.1Y-132.715
X165.1Y-133.985
X165.1Y-135.255
X165.1Y-136.525
X165.1Y-137.795
X165.1Y-139.065
X165.8Y-89.0
X165.8Y-90.27
X165.8Y-91.54
X165.8Y-92.81
X165.8Y-93.8
X165.8Y-95.07
X165.8Y-96.34
X165.8Y-97.61
X165.8Y-98.6
X165.8Y-99.87
X165.8Y-101.14
X165.8Y-102.41
T2
X99.88Y-94.91
X99.88Y-97.45
X99.88Y-99.99
X99.88Y-102.53
X99.88Y-105.07
X99.88Y-107.61
X99.88Y-110.15
X99.88Y-112.69
X99.88Y-123.72
X99.88Y-126.26
X99.88Y-128.8
X99.88Y-131.34
X99.88Y-133.88
X99.88Y-136.42
X99.88Y-138.96
X99.88Y-141.5
X100.5Y-118.25
X103.0Y-118.25
X107.5Y-94.91
X107.5Y-97.45
X107.5Y-99.99
X107.5Y-102.53
X107.5Y-105.07
X107.5Y-107.61
X107.5Y-110.15
X107.5Y-112.69
X107.5Y-123.72
X107.5Y-126.26
X107.5Y-128.8
X107.5Y-131.34
X107.5Y-133.88
X107.5Y-136.42
X107.5Y-138.96
X107.5Y-141.5
X112.3Y-109.4
X114.8Y-109.4
X116.44Y-78.0
X117.9Y-101.8
X120.4Y-101.8
X124.06Y-78.0
X125.15Y-102.0
X127.65Y-102.0
X127.75Y-77.69
X127.75Y-85.31
T3
X93.0Y-112.36
X93.0Y-114.86
X93.0Y-117.36
X93.0Y-119.86
X93.0Y-122.36
X93.0Y-124.86
X93.004Y-93.778
X93.004Y-96.278
X93.004Y-98.778
X133.4Y-102.2
X135.9Y-102.2
X138.4Y-102.2
X140.9Y-102.2
X162.4Y-78.3
X162.4Y-80.8
X162.4Y-83.3
X162.4Y-85.8
X162.4Y-92.2
X162.4Y-94.7
X162.4Y-97.2
X162.4Y-99.7
T4
X102.25Y-73.25
X104.75Y-73.25
X114.75Y-125.0
X114.75Y-133.25
X114.75Y-141.485
X117.25Y-125.0
X117.25Y-133.25
X117.25Y-141.485
X122.3Y-108.5
X122.3Y-111.04
X123.25Y-125.0
X123.25Y-133.275
X123.25Y-141.5
X124.84Y-108.5
X124.84Y-111.04
X125.75Y-125.0
X125.75Y-133.275
X125.75Y-141.5
X127.38Y-108.5
X127.38Y-111.04
X129.92Y-108.5
X129.92Y-111.04
X131.75Y-125.0
X131.75Y-133.275
X131.75Y-141.5
X132.46Y-108.5
X132.46Y-111.04
X134.25Y-125.0
X134.25Y-133.275
X134.25Y-141.5
X135.0Y-108.5
X135.0Y-111.04
X136.494Y-75.152
X136.494Y-77.692
X136.494Y-80.232
X137.54Y-108.5
X137.54Y-111.04
X140.08Y-108.5
X140.08Y-111.04
X140.25Y-125.0
X140.25Y-133.25
X140.25Y-141.5
X142.75Y-125.0
X142.75Y-133.25
X142.75Y-141.5
X148.75Y-125.0
X148.75Y-133.275
X148.75Y-141.525
X151.25Y-125.0
X151.25Y-133.275
X151.25Y-141.525
T5
X158.25Y-131.42
X158.25Y-133.96
X158.25Y-136.5
T6
X94.0Y-77.0
X94.0Y-82.08
X118.46Y-71.75
X123.54Y-71.75
X159.75Y-115.42
X159.75Y-120.5
M30
